<svg xmlns="http://www.w3.org/2000/svg" viewBox="0 0 409.6 273.07"><defs><style>.cls-1{fill:#0052b4}.cls-2{fill:#f0f0f0}.cls-3{fill:#d80027}</style></defs><g id="Layer_2" data-name="Layer 2"><g id="Layer_1-2" data-name="Layer 1"><path class="cls-1" d="M0 0h409.6v273.07H0z"/><path class="cls-2" d="M178.72 136.53l.65-.73-.66.73zm-26.94 34.39l8.22 17.16a.44.44 0 0 0 .5.24L179 184a.46.46 0 0 1 .51.64l-8.3 17.11a.46.46 0 0 0 .12.55l14.9 11.81a.45.45 0 0 1-.18.79l-18.55 4.19a.45.45 0 0 0-.35.44l.05 19a.45.45 0 0 1-.73.35L151.66 227a.47.47 0 0 0-.57 0l-14.83 11.89a.45.45 0 0 1-.73-.35l.05-19a.45.45 0 0 0-.35-.44l-18.55-4.19a.45.45 0 0 1-.18-.79l14.89-11.81a.45.45 0 0 0 .13-.55l-8.3-17.11a.45.45 0 0 1 .51-.64l18.52 4.28a.45.45 0 0 0 .51-.24l8.24-17.13a.45.45 0 0 1 .78 0zm158.29 22.77l3.62 7.57a.45.45 0 0 0 .51.25l8.17-1.89a.44.44 0 0 1 .5.63l-3.66 7.55a.45.45 0 0 0 .13.55l6.57 5.21a.45.45 0 0 1-.18.79l-8.18 1.85a.44.44 0 0 0-.35.44v8.39a.45.45 0 0 1-.73.35l-6.55-5.25a.45.45 0 0 0-.56 0l-6.54 5.25a.45.45 0 0 1-.74-.35v-8.39a.44.44 0 0 0-.35-.44l-8.18-1.85a.45.45 0 0 1-.18-.79l6.57-5.21a.45.45 0 0 0 .13-.55l-3.66-7.55a.45.45 0 0 1 .51-.63l8.17 1.89a.46.46 0 0 0 .51-.25l3.61-7.57a.46.46 0 0 1 .86 0zm-38.9-92.75l3.62 7.57a.45.45 0 0 0 .51.25l8.17-1.89a.45.45 0 0 1 .51.63l-3.67 7.55a.45.45 0 0 0 .13.55l6.57 5.21a.45.45 0 0 1-.18.79l-8.18 1.85a.44.44 0 0 0-.35.44v8.39a.45.45 0 0 1-.73.35l-6.57-5.25a.45.45 0 0 0-.56 0l-6.54 5.25a.45.45 0 0 1-.73-.35v-8.39a.45.45 0 0 0-.36-.44l-8.18-1.85a.45.45 0 0 1-.18-.79l6.57-5.21a.45.45 0 0 0 .13-.55l-3.66-7.55a.45.45 0 0 1 .51-.63l8.17 1.89a.45.45 0 0 0 .51-.25l3.62-7.57a.45.45 0 0 1 .87 0zm38.9-53l3.62 7.57a.45.45 0 0 0 .51.25l8.17-1.89a.44.44 0 0 1 .5.63l-3.66 7.55a.45.45 0 0 0 .13.55l6.57 5.21a.45.45 0 0 1-.18.79l-8.18 1.85a.44.44 0 0 0-.35.44v8.39a.45.45 0 0 1-.73.35l-6.55-5.25a.45.45 0 0 0-.56 0l-6.54 5.25a.45.45 0 0 1-.74-.35v-8.39a.44.44 0 0 0-.35-.44l-8.18-1.85a.45.45 0 0 1-.18-.79L300 62.6a.45.45 0 0 0 .13-.55l-3.66-7.55a.45.45 0 0 1 .51-.63l8.17 1.89a.46.46 0 0 0 .51-.25l3.61-7.57a.46.46 0 0 1 .8 0zM344 87.69l3.62 7.57a.46.46 0 0 0 .51.25l8.18-1.89a.44.44 0 0 1 .5.63l-3.66 7.55a.45.45 0 0 0 .13.55l6.57 5.21a.45.45 0 0 1-.18.79l-8.19 1.85a.45.45 0 0 0-.35.44v8.39a.45.45 0 0 1-.74.35l-6.54-5.25a.45.45 0 0 0-.56 0l-6.55 5.25a.45.45 0 0 1-.73-.35v-8.39a.44.44 0 0 0-.35-.44l-8.18-1.85a.45.45 0 0 1-.18-.79l6.57-5.21a.45.45 0 0 0 .12-.55l-3.66-7.55a.45.45 0 0 1 .51-.63l8.18 1.89a.44.44 0 0 0 .5-.25l3.62-7.57a.45.45 0 0 1 .86 0zm-24.23 46.85l2.76 8.49a.44.44 0 0 0 .43.31h8.93a.45.45 0 0 1 .26.82l-7.22 5.25a.42.42 0 0 0-.16.5l2.75 8.49a.45.45 0 0 1-.69.51l-7.22-5.25a.44.44 0 0 0-.53 0l-7.23 5.25a.45.45 0 0 1-.69-.51l2.76-8.49a.45.45 0 0 0-.16-.5l-7.23-5.25a.45.45 0 0 1 .27-.82h8.93a.45.45 0 0 0 .43-.31l2.76-8.49a.45.45 0 0 1 .85 0z"/><path class="cls-2" d="M204.8 0v24.45l-36.13 20.07h36.13V92h-47.28l47.28 26.27v18.25h-21.34l-58.8-32.66v32.66H80.14V97.68l-69.95 38.85H0v-24.44L36.13 92H0V44.52h47.28L0 18.25V0h21.34l58.8 32.66V0h44.52v38.86L194.6 0z"/><path class="cls-3" d="M115.2 0H89.6v55.47H0v25.6h89.6v55.46h25.6V81.07h89.6v-25.6h-89.6z"/><path class="cls-1" d="M124.66 92l80.14 44.52v-12.58L147.32 92z"/><path class="cls-2" d="M124.66 92l80.14 44.52v-12.58L147.32 92z"/><path class="cls-3" d="M124.66 92l80.14 44.52v-12.58L147.32 92zm-67.18 0L0 123.94v12.59L80.14 92z"/><path class="cls-1" d="M80.14 44.52L0 0v12.59l57.48 31.93z"/><path class="cls-2" d="M80.14 44.52L0 0v12.59l57.48 31.93z"/><path class="cls-3" d="M80.14 44.52L0 0v12.59l57.48 31.93zm67.18 0l57.48-31.93V0l-80.14 44.52z"/></g></g></svg>