<svg xmlns="http://www.w3.org/2000/svg" viewBox="0 0 409.6 273.07"><g data-name="Layer 2"><g data-name="Layer 1"><path fill="#dee8ed" d="M0 0h409.6v273.06H0z"/><path d="M0 0h136.53v273.07H0zm273.07 0H409.6v273.07H273.07zm-40.88 154.61l20.23-10.12a2 2 0 0 0 0-3.58l-8.12-4.06a2 2 0 0 1-1.1-1.78v-8.34a2 2 0 0 0-2.89-1.78L223 133.62a2 2 0 0 1-2.68-2.68l8.68-17.35a2 2 0 0 0-1.79-2.89h-8.49a2 2 0 0 1-1.66-.89L206.46 94a2 2 0 0 0-3.32 0l-10.55 15.82a2 2 0 0 1-1.66.89h-8.5a2 2 0 0 0-1.78 2.89l8.67 17.35a2 2 0 0 1-2.68 2.68L169.29 125a2 2 0 0 0-2.89 1.78v8.34a2 2 0 0 1-1.11 1.78l-8.11 4.06a2 2 0 0 0 0 3.58l20.23 10.12a2 2 0 0 1 .9 2.68l-4.06 8.11a2 2 0 0 0 1.78 2.9h20.37a2 2 0 0 1 2 2v15.2a2 2 0 0 0 2 2h8.8a2 2 0 0 0 2-2V170.3a2 2 0 0 1 2-2h20.37a2 2 0 0 0 1.78-2.9l-4.06-8.11a2 2 0 0 1 .9-2.68z" fill="#d80027"/></g></g></svg>