<svg xmlns="http://www.w3.org/2000/svg" viewBox="0 0 409.6 273.07"><g data-name="Layer 2"><g data-name="Layer 1"><path fill="#d80027" d="M0 0h409.6v273.07H0z"/><path d="M218.9 103.29c-3.07 12.73-8.47 10.5-11.22 21.25a.46.46 0 0 1-.55.34A29.68 29.68 0 0 1 221 67.17a.45.45 0 0 1 .34.55c-5.23 22.08.31 24.1-2.44 35.57zm-41.36 9.56c11.16 6.85 7.38 11.3 16.74 17.23a.46.46 0 0 1 .16.63 29.68 29.68 0 0 1-50.6-31 .45.45 0 0 1 .63-.15c19.39 11.79 23 7.15 33.07 13.31zm-3.69 42.29c10-8.5 13-3.52 21.57-10.6a.46.46 0 0 1 .64.05 29.68 29.68 0 0 1-45.14 38.54.46.46 0 0 1 .05-.65c17.21-14.8 13.91-19.68 22.88-27.34zm39.09 16.57c-5-12.1.67-13.48-3.43-23.78a.47.47 0 0 1 .25-.6 29.68 29.68 0 0 1 22.71 54.84.47.47 0 0 1-.61-.25c-8.75-20.94-14.41-19.31-18.92-30.21zm27.83-32.05c-13.05 1-12.61-4.8-23.67-4.09a.47.47 0 0 1-.5-.42 29.68 29.68 0 0 1 59.18-4.64.47.47 0 0 1-.43.49c-22.61 1.85-22.82 7.75-34.58 8.66z" fill="#fff"/></g></g></svg>