<svg xmlns="http://www.w3.org/2000/svg" viewBox="0 0 409.6 273.06"><g data-name="Layer 2"><g data-name="Layer 1"><path fill="#dee8ed" d="M0 0h409.6v273.06H0z"/><path fill="#ff9811" d="M0 0h409.6v91.02H0z"/><path fill="#6da544" d="M0 182.04h409.6v91.02H0z"/><path d="M204.8 101.41a35.12 35.12 0 1 0 35.12 35.12 35.13 35.13 0 0 0-35.12-35.12zm21.95 35.12a21.84 21.84 0 0 1-1.89 8.9l-6.52-8.9 6.52-8.9a21.84 21.84 0 0 1 1.89 8.9zm-15.18-11.73l-4.45-10.1a22 22 0 0 1 15.42 8.91zm-9.09-10.1L198 124.8l-11-1.19a22 22 0 0 1 15.48-8.91zm-19.63 21.83a21.84 21.84 0 0 1 1.89-8.9l6.52 8.9-6.52 8.9a21.84 21.84 0 0 1-1.89-8.9zm4.21 12.92l11-1.19 4.45 10.09a21.91 21.91 0 0 1-15.45-8.9zm20.06 8.9l4.45-10.09 11 1.19a21.91 21.91 0 0 1-15.45 8.9z" fill="#0052b4"/></g></g></svg>