<svg xmlns="http://www.w3.org/2000/svg" viewBox="0 0 409.6 273.07"><defs><style>.cls-2{fill:#6da544}</style></defs><g id="Layer_2" data-name="Layer 2"><g id="Layer_1-2" data-name="Layer 1"><path d="M273.07 0H0v273.07h409.6V0z" fill="#d80027"/><path class="cls-2" d="M0 0h136.53v273.07H0z"/><path fill="#dee8ed" d="M136.53 0h136.53v273.07H136.53z"/><path class="cls-2" d="M170.3 137.83a34.5 34.5 0 0 0 69 0v-11.5h-69z"/><path d="M256 110.93h-35.15a3.62 3.62 0 0 1-3.56-2.8 12.8 12.8 0 0 0-25 0 3.62 3.62 0 0 1-3.55 2.81H153.6c0 7.07 6.16 12.8 13.23 12.8h-.43a12.8 12.8 0 0 0 12.8 12.8 12.8 12.8 0 0 0 12.8 12.8h25.6a12.8 12.8 0 0 0 12.8-12.8 12.8 12.8 0 0 0 12.8-12.8h-.43c7.07 0 13.23-6.06 13.23-12.8z" fill="#ff9811"/></g></g></svg>