<svg xmlns="http://www.w3.org/2000/svg" viewBox="0 0 409.6 273.07"><defs><style>.cls-1{fill:#0052b4}.cls-2{fill:#d80027}.cls-3{fill:#f0f0f0}</style></defs><g id="Layer_2" data-name="Layer 2"><g id="Layer_1-2" data-name="Layer 1"><path class="cls-1" d="M0 0h409.6v273.07H0z"/><path class="cls-2" d="M340.67 120.05l2.18 6.71a.45.45 0 0 0 .43.32h7.06a.45.45 0 0 1 .26.81l-5.71 4.11a.44.44 0 0 0-.16.5l2.18 6.71a.45.45 0 0 1-.69.51l-5.71-4.15a.47.47 0 0 0-.53 0l-5.71 4.15a.46.46 0 0 1-.7-.51l2.18-6.71a.44.44 0 0 0-.16-.5l-5.71-4.15a.45.45 0 0 1 .26-.81h7.06a.45.45 0 0 0 .43-.32l2.18-6.71a.45.45 0 0 1 .86.04zm-31.36 60.06l3.54 10.89a.46.46 0 0 0 .43.32h11.44a.45.45 0 0 1 .27.81l-9.26 6.73a.44.44 0 0 0-.16.5l3.53 10.88a.45.45 0 0 1-.69.51l-9.26-6.75a.44.44 0 0 0-.53 0l-9.26 6.73a.45.45 0 0 1-.69-.51l3.54-10.88a.44.44 0 0 0-.17-.5l-9.26-6.73a.45.45 0 0 1 .27-.81h11.44a.45.45 0 0 0 .43-.32l3.54-10.88a.44.44 0 0 1 .85.01zm1.19-98.28l2.86 8.8a.44.44 0 0 0 .43.31H323a.45.45 0 0 1 .26.82l-7.48 5.43a.46.46 0 0 0-.17.51l2.86 8.8a.45.45 0 0 1-.69.5l-7.49-5.44a.45.45 0 0 0-.52 0l-7.45 5.44a.45.45 0 0 1-.69-.5l2.86-8.8a.47.47 0 0 0-.16-.51l-7.49-5.43a.45.45 0 0 1 .26-.82h9.25a.44.44 0 0 0 .43-.31l2.86-8.8a.45.45 0 0 1 .86 0zm-30.17 37.86l3.53 10.88a.45.45 0 0 0 .43.31h11.45a.45.45 0 0 1 .26.82l-9.26 6.72a.46.46 0 0 0-.16.51l3.54 10.88a.45.45 0 0 1-.69.5l-9.26-6.72a.44.44 0 0 0-.53 0l-9.26 6.72a.45.45 0 0 1-.69-.5l3.53-10.89a.45.45 0 0 0-.16-.5l-9.26-6.72a.45.45 0 0 1 .27-.82h11.44a.45.45 0 0 0 .43-.31l3.53-10.88a.45.45 0 0 1 .86 0z"/><path class="cls-3" d="M204.8 0v24.45l-36.14 20.07h36.14V92h-47.29l47.29 26.28v18.24h-21.35l-58.79-32.66v32.66H80.14V97.67L10.2 136.53H0v-24.44L36.14 92H0V44.52h47.29L0 18.25V0h21.35l58.79 32.67V0h44.52v38.86L194.6 0z"/><path class="cls-2" d="M115.2 0H89.6v55.47H0v25.6h89.6v55.47h25.6V81.07h89.6v-25.6h-89.6z"/><path class="cls-1" d="M124.66 92l80.14 44.53V124l-57.48-32z"/><path class="cls-3" d="M124.66 92l80.14 44.53V124l-57.48-32z"/><path class="cls-2" d="M124.66 92l80.14 44.53V124l-57.48-32zm-67.18 0L0 124v12.59L80.14 92z"/><path class="cls-1" d="M80.14 44.52L0 0v12.59l57.48 31.93z"/><path class="cls-3" d="M80.14 44.52L0 0v12.59l57.48 31.93z"/><path class="cls-2" d="M80.14 44.52L0 0v12.59l57.48 31.93zm67.18 0l57.48-31.93V0l-80.14 44.52z"/></g></g></svg>