<svg xmlns="http://www.w3.org/2000/svg" viewBox="0 0 409.6 273.07"><g data-name="Layer 2"><g data-name="Layer 1"><path fill="#dee8ed" d="M0 0h409.6v273.07H0z"/><path d="M0 34.13h409.6v34.13H0zm0 68.27h409.6v34.13H0zm0 68.26h409.6v34.13H0zm0 68.27h409.6v34.13H0z" fill="#d80027"/><path fill="#2e52b2" d="M0 0h204.8v147.04H0z"/><path d="M79.43 61.55l-2.77 8.52a.44.44 0 0 1-.43.31h-9a.45.45 0 0 0-.27.82l7.25 5.26a.44.44 0 0 1 .16.5l-2.77 8.52a.45.45 0 0 0 .7.5l7.24-5.26a.47.47 0 0 1 .53 0L87.36 86a.45.45 0 0 0 .7-.5L85.29 77a.44.44 0 0 1 .16-.5l7.25-5.3a.45.45 0 0 0-.27-.82h-9a.44.44 0 0 1-.43-.31l-2.76-8.52a.45.45 0 0 0-.81 0zm3.62 45.14l-2.76-8.52a.45.45 0 0 0-.86 0l-2.77 8.52a.45.45 0 0 1-.43.31h-9a.45.45 0 0 0-.27.81l7.25 5.27a.44.44 0 0 1 .16.5l-2.77 8.52a.45.45 0 0 0 .7.5l7.24-5.26a.44.44 0 0 1 .53 0l7.24 5.26a.45.45 0 0 0 .7-.5l-2.77-8.52a.44.44 0 0 1 .16-.5l7.25-5.27a.45.45 0 0 0-.27-.81h-9a.45.45 0 0 1-.33-.31zm-45.05 0l-2.8-8.52a.45.45 0 0 0-.86 0l-2.77 8.52a.45.45 0 0 1-.43.31h-8.95a.45.45 0 0 0-.27.81l7.25 5.27a.44.44 0 0 1 .16.5l-2.77 8.52a.45.45 0 0 0 .7.5l7.25-5.26a.42.42 0 0 1 .52 0l7.24 5.26a.45.45 0 0 0 .7-.5l-2.77-8.52a.44.44 0 0 1 .16-.5l7.25-5.27a.45.45 0 0 0-.27-.81h-9a.45.45 0 0 1-.34-.31zm-3.66-45.14l-2.77 8.52a.44.44 0 0 1-.43.31h-8.95a.45.45 0 0 0-.27.82l7.25 5.26a.44.44 0 0 1 .16.5l-2.77 8.52a.45.45 0 0 0 .7.5l7.25-5.26a.45.45 0 0 1 .52 0L42.27 86a.45.45 0 0 0 .7-.5L40.2 77a.44.44 0 0 1 .16-.5l7.25-5.26a.45.45 0 0 0-.27-.82h-9a.44.44 0 0 1-.43-.31l-2.71-8.56a.45.45 0 0 0-.86 0zm45.09-36.62l-2.77 8.52a.44.44 0 0 1-.43.31h-9a.45.45 0 0 0-.27.82l7.25 5.26a.44.44 0 0 1 .16.5l-2.77 8.52a.46.46 0 0 0 .7.51l7.24-5.27a.47.47 0 0 1 .53 0l7.24 5.27a.46.46 0 0 0 .7-.51l-2.77-8.52a.44.44 0 0 1 .16-.5l7.25-5.26a.45.45 0 0 0-.27-.82h-9a.44.44 0 0 1-.43-.31l-2.76-8.52a.45.45 0 0 0-.76 0zm-45.09 0l-2.77 8.52a.44.44 0 0 1-.43.31h-8.95a.45.45 0 0 0-.27.82l7.25 5.26a.44.44 0 0 1 .16.5l-2.77 8.52a.46.46 0 0 0 .7.51l7.25-5.27a.45.45 0 0 1 .52 0l7.24 5.27a.46.46 0 0 0 .7-.51l-2.77-8.52a.44.44 0 0 1 .16-.5l7.25-5.26a.45.45 0 0 0-.27-.82h-9a.44.44 0 0 1-.43-.31l-2.71-8.52a.45.45 0 0 0-.86 0zm90.18 36.62l-2.77 8.52a.44.44 0 0 1-.43.31h-8.95a.45.45 0 0 0-.27.82l7.25 5.26a.44.44 0 0 1 .16.5l-2.77 8.52a.45.45 0 0 0 .7.5l7.24-5.26a.47.47 0 0 1 .53 0l7.24 5.28a.45.45 0 0 0 .7-.5l-2.77-8.5a.44.44 0 0 1 .16-.5l7.25-5.26a.45.45 0 0 0-.27-.82h-9a.44.44 0 0 1-.43-.31l-2.77-8.52a.45.45 0 0 0-.8-.04zm3.62 45.14l-2.77-8.52a.44.44 0 0 0-.85 0l-2.77 8.52a.45.45 0 0 1-.43.31h-8.95a.45.45 0 0 0-.27.81l7.25 5.27a.44.44 0 0 1 .16.5l-2.77 8.52a.45.45 0 0 0 .7.5l7.24-5.26a.44.44 0 0 1 .53 0l7.24 5.26a.45.45 0 0 0 .7-.5l-2.77-8.52a.44.44 0 0 1 .16-.5l7.25-5.27a.45.45 0 0 0-.27-.81h-9a.45.45 0 0 1-.38-.31zm45.09 0l-2.77-8.52a.44.44 0 0 0-.85 0l-2.77 8.52a.45.45 0 0 1-.43.31h-8.95a.45.45 0 0 0-.27.81l7.25 5.27a.44.44 0 0 1 .16.5l-2.77 8.52a.45.45 0 0 0 .69.5l7.25-5.26a.44.44 0 0 1 .53 0l7.24 5.26a.45.45 0 0 0 .7-.5l-2.77-8.52a.44.44 0 0 1 .16-.5l7.25-5.27a.45.45 0 0 0-.27-.81h-9a.45.45 0 0 1-.38-.31zm-3.62-45.14l-2.77 8.52a.44.44 0 0 1-.43.31h-8.95a.45.45 0 0 0-.27.82l7.25 5.26a.44.44 0 0 1 .16.5l-2.77 8.52a.45.45 0 0 0 .69.5l7.25-5.26a.47.47 0 0 1 .53 0l7.24 5.28a.45.45 0 0 0 .7-.5l-2.77-8.5a.44.44 0 0 1 .16-.5l7.25-5.26a.45.45 0 0 0-.27-.82h-9a.44.44 0 0 1-.43-.31l-2.77-8.52a.45.45 0 0 0-.8-.04zm-45.09-36.62l-2.77 8.52a.44.44 0 0 1-.43.31h-8.95a.45.45 0 0 0-.27.82l7.25 5.26a.44.44 0 0 1 .16.5l-2.77 8.52a.46.46 0 0 0 .7.51l7.24-5.27a.47.47 0 0 1 .53 0l7.24 5.27a.46.46 0 0 0 .7-.51l-2.77-8.52a.44.44 0 0 1 .16-.5l7.25-5.26a.45.45 0 0 0-.27-.82h-9a.44.44 0 0 1-.43-.31l-2.77-8.52a.45.45 0 0 0-.8 0zm45.09 0l-2.77 8.52a.44.44 0 0 1-.43.31h-8.95a.45.45 0 0 0-.27.82l7.25 5.26a.44.44 0 0 1 .16.5l-2.77 8.52a.45.45 0 0 0 .69.51l7.25-5.27a.47.47 0 0 1 .53 0l7.24 5.27a.46.46 0 0 0 .7-.51l-2.77-8.52a.44.44 0 0 1 .16-.5l7.25-5.26a.45.45 0 0 0-.27-.82h-9a.44.44 0 0 1-.43-.31l-2.77-8.52a.45.45 0 0 0-.8 0z" fill="#f0f0f0"/></g></g></svg>