<svg xmlns="http://www.w3.org/2000/svg" viewBox="0 0 409.6 273.07"><defs><style>.cls-2{fill:#d80027}.cls-3{fill:#0052b4}.cls-4{fill:#f0f0f0}</style></defs><g id="Layer_2" data-name="Layer 2"><g id="Layer_1-2" data-name="Layer 1"><path fill="#dee8ed" d="M0 0h409.6v273.07H0z"/><path class="cls-2" d="M230.4 0h-51.2v110.93H0v51.2h179.2v110.94h51.2V162.13h179.2v-51.2H230.4z"/><path class="cls-3" d="M315 184l94.57 52.54V184zm-65.68 0l160.28 89v-25.11L294.64 184zm117.59 89.07l-117.59-65.34v65.34z"/><path class="cls-4" d="M249.32 184l160.28 89v-25.11L294.64 184z"/><path class="cls-2" d="M249.32 184l160.28 89v-25.11L294.64 184z"/><path class="cls-3" d="M72.27 184L0 224.17V184zm88.01 11.34v77.73H20.39z"/><path class="cls-2" d="M115 184L0 247.89v25.18l160.28-89z"/><path class="cls-3" d="M94.57 89L0 36.5V89zm65.71 0L0 0v25.18L115 89zM42.69 0l117.59 65.33V0z"/><path class="cls-4" d="M160.28 89L0 0v25.18L115 89z"/><path class="cls-2" d="M160.28 89L0 0v25.18L115 89z"/><path class="cls-3" d="M337.33 89l72.27-40.1V89zm-88.01-11.28V0h139.89z"/><path class="cls-2" d="M294.64 89l115-63.86V0L249.32 89z"/></g></g></svg>