<?xml version="1.0" encoding="UTF-8"?>
<!-- Generator: Adobe Illustrator 25.2.0, SVG Export Plug-In . SVG Version: 6.00 Build 0)  -->
<svg version="1.1" id="Layer_1" xmlns="http://www.w3.org/2000/svg" xmlns:xlink="http://www.w3.org/1999/xlink" x="0px" y="0px" viewBox="0 0 425 110.4" style="enable-background:new 0 0 425 110.4;" xml:space="preserve">
<style type="text/css">
	.st0{fill:#7B7979;}
	.st1{clip-path:url(#SVGID_2_);}
	.st2{fill:#446EBF;}
	.st3{clip-path:url(#SVGID_4_);}
	.st4{fill:none;stroke:#446EBF;stroke-width:2.4871;stroke-miterlimit:10;}
	.st5{fill:#486BBD;}
</style>
<g id="surface1">
	<path class="st0" d="M0,91.7h5.6V49.4h53.9v-4.8H5.6V10.2h57.1V5.4H0V91.7"/>
	<path class="st0" d="M213.5,47.6h-37.6V10.2h39c12.2,0,23.1,3.6,23.1,17.6C238,47.6,218.9,47.6,213.5,47.6z M242.1,67.7   c-0.1-9.3-5.7-16.6-16.2-17.9v-0.2c12.2-2.8,17.7-12.4,17.7-21.4c0-18.1-12.6-22.8-29.1-22.8h-44.1v86.3h5.6V52.4h38.4   c17,0,21.9,4.2,22.2,19.2c0.4,13.2,0.8,18.6,2.4,20.1h5.6C242.8,88.5,242.3,83.5,242.1,67.7"/>
	<path class="st0" d="M267.7,69.9h1v10.2h12.4V69.9h1v21.5h-1V81h-12.4v10.4h-1V69.9"/>
	<path class="st0" d="M287.4,83.3V69.9h1v13.4c0,4.9,2.6,7.5,6.5,7.5c3.8,0,6.4-2.5,6.4-7.5V69.9h1v13.4c0,5.5-3,8.5-7.4,8.5   C290.4,91.8,287.4,88.8,287.4,83.3"/>
	<path class="st0" d="M307.5,69.9h1l7.6,13.1l7.6-13.1h1v21.5h-1V71.8l-7.6,13h-0.1l-7.6-13v19.6h-1V69.9"/>
	<path class="st0" d="M342.7,84.2l-5.1-13.1l-5.1,13.1H342.7z M337.1,69.8h1l8.5,21.7h-1.1l-2.4-6.3h-11l-2.4,6.3h-1L337.1,69.8"/>
	<path class="st0" d="M350.5,69.9h1l13.1,19.5V69.9h1v21.5h-0.8l-13.2-19.8v19.8h-1V69.9"/>
	<path class="st0" d="M371.3,69.9h1v21.5h-1V69.9"/>
	<path class="st0" d="M382.6,70.8h-6.4v-0.9H390v0.9h-6.4v20.6h-1V70.8"/>
	<path class="st0" d="M399.2,82.5l-7.7-12.6h1.2l7,11.6l7-11.6h1.1l-7.7,12.6v9h-1V82.5"/>
	<path class="st0" d="M266.5,24.3l0.7-0.7c1.8,1.8,3.9,2.9,6.5,2.9c3.2,0,5.4-1.9,5.4-4.6v-0.1c0-2.3-1.2-3.7-5.6-5.2   c-4.5-1.6-6.2-3.2-6.2-6v-0.1c0-2.9,2.6-5.3,6.2-5.3c2.5,0,4.5,0.9,6.2,2.3L279,8.4c-1.6-1.4-3.4-2.2-5.6-2.2c-3.1,0-5.1,2-5.1,4.3   v0.1c0,2.4,1.3,3.7,5.6,5.2c4.7,1.7,6.2,3.4,6.2,6.1v0.1c0,3.2-2.6,5.5-6.4,5.5C270.8,27.4,268.5,26.3,266.5,24.3"/>
	<path class="st0" d="M283.7,16.4v-0.2c0-6.4,3.9-11,9.1-11c3,0,4.8,1.1,6.3,2.6l-0.7,0.7c-1.4-1.3-3-2.4-5.7-2.4c-4.6,0-8,4.2-8,10   v0.2c0,5.9,3.5,10.1,8,10.1c2.5,0,4.4-1.1,5.9-2.6l0.7,0.7c-1.6,1.6-3.7,2.9-6.6,2.9C287.5,27.4,283.7,23,283.7,16.4"/>
	<path class="st0" d="M303.3,5.6h1v21.5h-1V5.6"/>
	<path class="st0" d="M310,5.6h12.6v0.9H311v9.3h10.5v0.9H311v9.5h11.7v0.9H310V5.6"/>
	<path class="st0" d="M327.2,5.6h1l13.1,19.5V5.6h1v21.5h-0.8L328.1,7.3v19.8h-1V5.6"/>
	<path class="st0" d="M346.9,16.4v-0.2c0-6.4,3.9-11,9.1-11c3,0,4.8,1.1,6.3,2.6l-0.7,0.7c-1.4-1.3-3-2.4-5.7-2.4c-4.6,0-8,4.2-8,10   v0.2c0,5.9,3.5,10.1,8,10.1c2.5,0,4.4-1.1,5.9-2.6l0.6,0.7c-1.6,1.6-3.7,2.9-6.6,2.9C350.7,27.4,346.9,23,346.9,16.4"/>
	<path class="st0" d="M366.3,5.6h12.6v0.9h-11.6v9.3h10.5v0.9h-10.5v9.5h11.7v0.9h-12.7V5.6"/>
	<path class="st0" d="M267.7,37.7h12.6v0.9h-11.6v9.3h10.5v0.9h-10.5v9.5h11.7v0.9h-12.8V37.7"/>
	<path class="st0" d="M285.9,38.6v19.7h4.3c5.6,0,9.1-4,9.1-9.7v-0.2c0-5.7-3.6-9.8-9.1-9.8H285.9z M284.9,37.7h5.4   c6,0,10.1,4.3,10.1,10.7v0.2c0,6.3-4.1,10.7-10.2,10.7h-5.4V37.7"/>
	<path class="st0" d="M304.9,51.1V37.7h1v13.4c0,4.9,2.6,7.5,6.5,7.5c3.8,0,6.4-2.5,6.4-7.5V37.7h1v13.4c0,5.5-3,8.5-7.4,8.5   C307.8,59.6,304.9,56.6,304.9,51.1"/>
	<path class="st0" d="M324.1,48.6v-0.2c0-6.4,3.9-11,9.1-11c3,0,4.8,1.1,6.3,2.6l-0.7,0.7c-1.4-1.3-3-2.4-5.7-2.4c-4.6,0-8,4.2-8,10   v0.2c0,5.9,3.5,10.1,8,10.1c2.5,0,4.4-1.1,5.9-2.6l0.6,0.7c-1.6,1.6-3.7,2.9-6.6,2.9C327.9,59.5,324.1,55.1,324.1,48.6"/>
	<path class="st0" d="M356,52l-5.1-13.1L345.7,52H356z M350.4,37.5h1l8.5,21.7h-1.1l-2.4-6.3h-11l-2.4,6.3h-1L350.4,37.5"/>
	<path class="st0" d="M366,38.6h-6.4v-0.9h13.8v0.9H367v20.6h-1V38.6"/>
	<path class="st0" d="M377.3,37.7h1v21.5h-1V37.7"/>
	<path class="st0" d="M400,48.6v-0.2c0-5.7-3.3-10.1-7.9-10.1c-4.6,0-7.9,4.3-7.9,10v0.2c0,5.7,3.3,10.1,7.9,10.1S400,54.3,400,48.6   z M383.2,48.6v-0.2c0-6.3,3.6-11,8.9-11c5.4,0,9,4.7,9,11v0.2c0,6.3-3.6,11-9,11S383.2,54.8,383.2,48.6"/>
	<g>
		<defs>
			<rect id="SVGID_1_" x="405" y="37.4" width="15.8" height="22"/>
		</defs>
		<clipPath id="SVGID_2_">
			<use xlink:href="#SVGID_1_" style="overflow:visible;"/>
		</clipPath>
		<g class="st1">
			<path class="st0" d="M405.8,37.7h1l13.1,19.5V37.7h1v21.5H420l-13.2-19.8v19.8h-1V37.7"/>
		</g>
	</g>
	<path class="st2" d="M114.3,5.8c23.3,0,38.1,14.5,41.2,33.1h6.3c-3.2-21.6-20.4-37.7-47.5-37.7C87.1,1.2,69.9,17.4,66.7,39H73   C76.1,20.3,90.9,5.8,114.3,5.8"/>
	<g>
		<defs>
			<rect id="SVGID_3_" x="52" width="124" height="53.4"/>
		</defs>
		<clipPath id="SVGID_4_">
			<use xlink:href="#SVGID_3_" style="overflow:visible;"/>
		</clipPath>
		<g class="st3">
			<path class="st4" d="M114.3,5.8c23.3,0,38.1,14.5,41.2,33.1h6.3c-3.2-21.6-20.4-37.7-47.5-37.7C87.1,1.2,69.9,17.4,66.7,39H73     C76.1,20.3,90.9,5.8,114.3,5.8z"/>
		</g>
	</g>
	<path class="st5" d="M114.3,87.3C90.8,87.3,76,72.8,73,54h-6.3c3.2,21.7,20.4,37.9,47.7,37.9c27.2,0,44.4-16.2,47.6-37.9h-6.3   C152.5,72.8,137.7,87.3,114.3,87.3"/>
	<path class="st4" d="M114.3,87.3C90.8,87.3,76,72.8,73,54h-6.3c3.2,21.7,20.4,37.9,47.7,37.9c27.2,0,44.4-16.2,47.6-37.9h-6.3   C152.5,72.8,137.7,87.3,114.3,87.3z"/>
	<path class="st0" d="M0,100.7h6v1.5H1.6v2.7h3.9v1.5H1.6v4H0V100.7"/>
	<path class="st0" d="M13.6,105.5L13.6,105.5c0-2.2-1.1-3.5-2.6-3.5c-1.5,0-2.6,1.4-2.6,3.4v0.1c0,2.1,1.1,3.4,2.6,3.4   C12.6,109,13.6,107.6,13.6,105.5z M6.8,105.6v-0.1c0-2.9,1.8-4.9,4.3-4.9c2.5,0,4.2,2,4.2,4.9v0.1c0,2.9-1.8,4.9-4.3,4.9   C8.5,110.4,6.8,108.4,6.8,105.6"/>
	<path class="st0" d="M16.5,106.6v-5.9h1.6v5.9c0,1.6,0.8,2.4,2,2.4c1.2,0,2-0.8,2-2.3v-6h1.6v5.9c0,2.6-1.4,3.9-3.6,3.9   C18,110.4,16.5,109.1,16.5,106.6"/>
	<path class="st0" d="M25.3,100.7h1.5l4.2,6.4v-6.4h1.6v9.6h-1.3l-4.4-6.6v6.6h-1.6V100.7"/>
	<path class="st0" d="M35.9,102.1v6.7h1.3c1.8,0,2.9-1.2,2.9-3.3v-0.1c0-2.1-1.2-3.3-2.9-3.3H35.9z M34.3,100.7h2.9   c2.7,0,4.6,1.9,4.6,4.7v0.1c0,2.8-1.8,4.8-4.6,4.8h-2.9V100.7"/>
	<path class="st0" d="M47.6,106.6l-1.4-3.9l-1.4,3.9H47.6z M45.5,100.6H47l3.5,9.7h-1.7l-0.8-2.3h-3.7l-0.8,2.3h-1.6L45.5,100.6"/>
	<path class="st0" d="M52.5,102.2H50v-1.5h6.6v1.5h-2.5v8.1h-1.6V102.2"/>
	<path class="st0" d="M57.8,100.7h1.6v9.6h-1.6V100.7"/>
	<path class="st0" d="M67.7,105.5L67.7,105.5c0-2.2-1.1-3.5-2.6-3.5c-1.5,0-2.6,1.4-2.6,3.4v0.1c0,2.1,1.1,3.4,2.6,3.4   C66.6,109,67.7,107.6,67.7,105.5z M60.9,105.6v-0.1c0-2.9,1.8-4.9,4.3-4.9c2.5,0,4.2,2,4.2,4.9v0.1c0,2.9-1.8,4.9-4.3,4.9   C62.6,110.4,60.9,108.4,60.9,105.6"/>
	<path class="st0" d="M70.8,100.7h1.5l4.2,6.4v-6.4H78v9.6h-1.3l-4.3-6.6v6.6h-1.6V100.7"/>
	<path class="st0" d="M83,100.7h6v1.5h-4.4v2.7h3.9v1.5h-3.9v4H83V100.7"/>
	<path class="st0" d="M96.6,105.5L96.6,105.5c0-2.2-1.1-3.5-2.6-3.5c-1.5,0-2.6,1.4-2.6,3.4v0.1c0,2.1,1.1,3.4,2.6,3.4   C95.5,109,96.6,107.6,96.6,105.5z M89.7,105.6v-0.1c0-2.9,1.8-4.9,4.3-4.9c2.5,0,4.2,2,4.2,4.9v0.1c0,2.9-1.8,4.9-4.3,4.9   C91.5,110.4,89.7,108.4,89.7,105.6"/>
	<path class="st0" d="M102.9,105.5c1.2,0,1.9-0.7,1.9-1.7v0c0-1.1-0.7-1.6-1.9-1.6h-1.7v3.3H102.9z M99.6,100.7h3.5   c1.1,0,2,0.3,2.6,0.9c0.5,0.5,0.8,1.2,0.8,2.1v0.1c0,1.5-0.8,2.4-2,2.8l2.3,3.7h-1.8l-2-3.4c0,0-0.1,0-0.1,0h-1.5v3.4h-1.6V100.7"/>
	<path class="st0" d="M117.5,105.5L117.5,105.5c0-2.2-1.1-3.5-2.6-3.5c-1.5,0-2.6,1.4-2.6,3.4v0.1c0,2.1,1.1,3.4,2.6,3.4   S117.5,107.6,117.5,105.5z M110.7,105.6v-0.1c0-2.9,1.8-4.9,4.3-4.9c2.5,0,4.2,2,4.2,4.9v0.1c0,2.9-1.8,4.9-4.3,4.9   C112.4,110.4,110.7,108.4,110.7,105.6"/>
	<path class="st0" d="M123.9,105.5c1.2,0,1.9-0.7,1.9-1.7v0c0-1.1-0.7-1.6-1.9-1.6h-1.7v3.3H123.9z M120.6,100.7h3.5   c1.1,0,2,0.3,2.6,0.9c0.5,0.5,0.8,1.2,0.8,2.1v0.1c0,1.5-0.8,2.4-2,2.8l2.3,3.7h-1.8l-2-3.4c0,0-0.1,0-0.1,0h-1.5v3.4h-1.6V100.7"/>
	<path class="st0" d="M133.7,106.6l-1.4-3.9l-1.4,3.9H133.7z M131.6,100.6h1.5l3.5,9.7H135l-0.8-2.3h-3.7l-0.8,2.3h-1.6L131.6,100.6   "/>
	<path class="st0" d="M137.7,100.7h1.6v8.1h4.1v1.5h-5.7V100.7"/>
	<path class="st0" d="M151,105.5c1.2,0,1.9-0.7,1.9-1.7v0c0-1.1-0.7-1.6-1.9-1.6h-1.7v3.3H151z M147.7,100.7h3.5   c1.1,0,2,0.3,2.6,0.9c0.5,0.5,0.8,1.2,0.8,2.1v0.1c0,1.5-0.8,2.4-2,2.8l2.3,3.7H153l-2-3.4c0,0-0.1,0-0.1,0h-1.5v3.4h-1.6V100.7"/>
	<path class="st0" d="M155.9,100.7h6.1v1.4h-4.5v2.6h4v1.4h-4v2.7h4.5v1.4h-6.1V100.7"/>
	<path class="st0" d="M163.4,100.7h1.6v4h3.8v-4h1.6v9.6h-1.6v-4.1H165v4.1h-1.6V100.7"/>
	<path class="st0" d="M177,106.6l-1.4-3.9l-1.4,3.9H177z M174.9,100.6h1.5l3.5,9.7h-1.7l-0.8-2.3h-3.7l-0.8,2.3h-1.6L174.9,100.6"/>
	<path class="st0" d="M184.5,106.1h-1.9v2.7h2c1.1,0,1.8-0.5,1.8-1.4v0C186.3,106.6,185.7,106.1,184.5,106.1z M185.9,103.4   c0-0.8-0.6-1.3-1.6-1.3h-1.8v2.7h1.7C185.2,104.8,185.9,104.3,185.9,103.4L185.9,103.4z M181,100.7h3.4c1,0,1.9,0.3,2.5,0.8   c0.4,0.4,0.6,1,0.6,1.6v0c0,1.2-0.7,1.8-1.4,2.2c1.1,0.4,1.8,1,1.8,2.3v0.1c0,1.7-1.4,2.6-3.4,2.6H181V100.7"/>
	<path class="st0" d="M189.2,100.7h1.6v9.6h-1.6V100.7"/>
	<path class="st0" d="M192.6,100.7h1.6v8.1h4.1v1.5h-5.7V100.7"/>
	<path class="st0" d="M199.5,100.7h1.6v9.6h-1.6V100.7"/>
	<path class="st0" d="M204.9,102.2h-2.5v-1.5h6.6v1.5h-2.5v8.1h-1.6V102.2"/>
	<path class="st0" d="M214,106.6l-1.4-3.9l-1.4,3.9H214z M211.9,100.6h1.5l3.5,9.7h-1.7l-0.8-2.3h-3.7l-0.8,2.3h-1.6L211.9,100.6"/>
	<path class="st0" d="M218.9,102.2h-2.5v-1.5h6.6v1.5h-2.5v8.1h-1.6V102.2"/>
	<path class="st0" d="M224.3,100.7h1.6v9.6h-1.6V100.7"/>
	<path class="st0" d="M234.2,105.5L234.2,105.5c0-2.2-1.1-3.5-2.6-3.5c-1.5,0-2.6,1.4-2.6,3.4v0.1c0,2.1,1.1,3.4,2.6,3.4   C233.1,109,234.2,107.6,234.2,105.5z M227.3,105.6v-0.1c0-2.9,1.8-4.9,4.3-4.9c2.5,0,4.2,2,4.2,4.9v0.1c0,2.9-1.8,4.9-4.3,4.9   C229.1,110.4,227.3,108.4,227.3,105.6"/>
	<path class="st0" d="M237.2,100.7h1.5l4.2,6.4v-6.4h1.6v9.6h-1.3l-4.4-6.6v6.6h-1.6V100.7"/>
</g>
</svg>