<svg xmlns="http://www.w3.org/2000/svg" viewBox="0 0 37.76 37.87"><g data-name="Layer 2"><path d="M33 6.43a.53.53 0 0 0-.12-.14A18.81 18.81 0 0 0 19.05 0h-.17a18.81 18.81 0 0 0-14 6.29l-.12.14a18.9 18.9 0 0 0 0 25l.12.14a18.81 18.81 0 0 0 14 6.28.69.69 0 0 0 .2 0 .85.85 0 0 0 .23 0 18.83 18.83 0 0 0 13.67-6.27.52.52 0 0 0 .1-.11 18.91 18.91 0 0 0 0-25zm-.9 23.21a22 22 0 0 0-4.1-1.71 32.16 32.16 0 0 0 1.25-8.54h6.74a16.89 16.89 0 0 1-3.89 10.25zM1.82 19.39h6.75A32.1 32.1 0 0 0 9.81 28a22.16 22.16 0 0 0-4.14 1.61 16.7 16.7 0 0 1-3.85-10.22zM5.67 8a21.49 21.49 0 0 0 4.14 1.6 33.28 33.28 0 0 0-1.24 8H1.84A17 17 0 0 1 5.67 8zm12.26 1.2A34.08 34.08 0 0 1 12 8.5c1.43-3.65 3.68-6.17 5.94-6.62zm0 1.8v6.58h-7.55a29.56 29.56 0 0 1 1.11-7.48 31.85 31.85 0 0 0 6.44.9zm0 8.39v7.46a32.68 32.68 0 0 0-6.44.67 29.61 29.61 0 0 1-1.12-8.13zm0 9.26V36c-2.26-.45-4.51-3-5.94-6.62a34.08 34.08 0 0 1 5.94-.73zm1.8 0a28.37 28.37 0 0 1 5.67.69c-1.37 3.51-3.42 6-5.67 6.56zm0-1.81v-7.45h7.66a29.24 29.24 0 0 1-1.31 8.13 33.42 33.42 0 0 0-6.35-.67zm0-9.27V11a32.3 32.3 0 0 0 6.35-.89 29 29 0 0 1 1.3 7.48zm0-8.39V1.94C22 2.52 24 5 25.4 8.5a28.37 28.37 0 0 1-5.67.69zm4.52-6.52a17.18 17.18 0 0 1 6.58 4A20.3 20.3 0 0 1 27.38 8a16.91 16.91 0 0 0-3.13-5.33zM10.38 8a21 21 0 0 1-3.45-1.29 17.21 17.21 0 0 1 6.59-4A16.92 16.92 0 0 0 10.38 8zm0 21.76a16.7 16.7 0 0 0 3.14 5.37 17.07 17.07 0 0 1-6.59-4 21 21 0 0 1 3.45-1.33zm17 0a20.3 20.3 0 0 1 3.45 1.34 17 17 0 0 1-6.58 4 16.69 16.69 0 0 0 3.13-5.3zm1.81-12.22A32.79 32.79 0 0 0 28 9.64a23.37 23.37 0 0 0 4.1-1.71 17.09 17.09 0 0 1 3.82 9.65z" data-name="Layer 1"/></g></svg>