<?xml version="1.0" encoding="utf-8"?>
<!-- Generator: Adobe Illustrator 24.3.0, SVG Export Plug-In . SVG Version: 6.00 Build 0)  -->
<svg version="1.1" id="Capa_1" xmlns="http://www.w3.org/2000/svg" xmlns:xlink="http://www.w3.org/1999/xlink" x="0px" y="0px"
	 viewBox="0 0 477.2 477.2" style="enable-background:new 0 0 477.2 477.2;" xml:space="preserve">
<style type="text/css">
	.st0{fill:none;stroke:#000000;stroke-width:20;stroke-miterlimit:10;}
</style>
<g>
	<path class="st0" d="M454,367.7l-2.2-6.5c-5.1-15.2-21.9-31.1-37.4-35.3l-57.1-15.6c-15.5-4.2-37.6,1.5-48.9,12.8l-20.7,20.7
		c-75.1-20.3-134.1-79.2-154.3-154.4l20.7-20.7c11.3-11.3,17-33.4,12.8-48.9l-15.6-57.2c-4.2-15.5-20.1-32.3-35.3-37.3l-6.5-2.2
		c-15.2-5.1-37,0.1-48.3,11.4l-30.9,31c-5.5,5.5-9.1,21.2-9.1,21.3C20.1,185,58.6,279.6,128.1,349
		c69.3,69.3,163.5,107.7,261.5,106.9c0.5,0,16.7-3.5,22.2-9l30.9-30.9C454,404.7,459.1,383,454,367.7z"/>
</g>
</svg>
