<?xml version="1.0" ?><svg viewBox="0 0 512 512" xmlns="http://www.w3.org/2000/svg"><g id="Dentist"><path d="M174.9932,202.8286a80.9672,80.9672,0,0,0,35.1435,66.7235v20.8663a18.0005,18.0005,0,0,1-14.0454,17.4722l-33.6991,7.4169-18.7164,4.1192a62.1559,62.1559,0,0,0-34.8516,21.6167q-.8234,1.0243-1.6,2.081a61.9748,61.9748,0,0,0-12.02,36.6021v80.0981a8,8,0,0,0,8,8H408.7959a8,8,0,0,0,8-8V379.7265a61.9742,61.9742,0,0,0-12.02-36.6021q-.7767-1.0563-1.6-2.081a61.9741,61.9741,0,0,0-32.3-20.9974q-1.2675-.3367-2.5513-.6193l-50.4717-11.1084-.003-.0005-1.9413-.4272a18,18,0,0,1-14.0449-17.4722V269.551a80.9673,80.9673,0,0,0,35.1416-66.7224V125.1811a81.0059,81.0059,0,1,0-162.0117,0Zm16-66.8459c17.9057-1.5873,62.2461-7.9271,88.0293-32.5809,7.9528,10.887,23.1627,27.803,41.9824,29.8862v66.07l-61.63-28.686a8,8,0,0,0-6.7515,0l-61.63,28.6864Zm1.4229,80.3618L256,186.749l63.5826,29.5951a65.0031,65.0031,0,0,1-127.166,0ZM255.999,361.59l-45.4764-42.6749a34.1146,34.1146,0,0,0,15.6141-28.4965V278.1057a80.6987,80.6987,0,0,0,59.7266,0v12.3132a34.1155,34.1155,0,0,0,15.6128,28.4959Zm103.074,33.8166-6.381,32.7415a6.0776,6.0776,0,0,1-5.9654,4.9151h0a6.0774,6.0774,0,0,1-5.8145-4.3089L336.9832,415.84a4.7451,4.7451,0,0,0-4.5394-3.3638h0a4.7447,4.7447,0,0,0-4.5393,3.3638l-3.9287,12.9142a6.0777,6.0777,0,0,1-5.8146,4.3089h0a6.0776,6.0776,0,0,1-5.9655-4.9151l-6.381-32.7415a19.3523,19.3523,0,0,1,8.2363-19.8076,12.7454,12.7454,0,0,1,13.0687-.56,11.552,11.552,0,0,0,10.6486,0,12.7454,12.7454,0,0,1,13.0686.56A19.3522,19.3522,0,0,1,359.073,395.4064Z"/></g></svg>