<svg id="Слой_1" data-name="Слой 1" xmlns="http://www.w3.org/2000/svg" viewBox="0 0 113.26 113.26"><defs><style>.cls-1{fill:#cdac68;}</style></defs><path class="cls-1" d="M81.38,7l-5.25,9.86h0L49.81,66.31H62.66V52.07h10.1V66.24h43.85a58.36,58.36,0,0,0,.39-6.65A56.65,56.65,0,0,0,81.38,7ZM74.27,64.73V50.57H61.16V64.81H52.31L76.85,18.69a44.18,44.18,0,0,1,27.4,46Z" transform="translate(-3.74 -2.96)"/><path class="cls-1" d="M62.52,76H37.65V68.53L65.49,15.81h0L71.67,4.09A56.63,56.63,0,0,0,21,100.29l6.09-11.58h0a44.16,44.16,0,0,1,33.28-73.2c1.18,0,2.34.05,3.5.14L36.14,68.16v9.31H61v26.37h-.64a44,44,0,0,1-24.66-7.52h0L30,107.37a56.38,56.38,0,0,0,30.41,8.85c.72,0,1.43,0,2.15,0V103.79h0Z" transform="translate(-3.74 -2.96)"/><path class="cls-1" d="M101.48,75.87H72.84v26.19h0v12.78a56.7,56.7,0,0,0,41.78-39H101.48ZM74.34,101.58V77.37h26.51A44.3,44.3,0,0,1,74.34,101.58Z" transform="translate(-3.74 -2.96)"/></svg>