<svg id="Слой_1" data-name="Слой 1" xmlns="http://www.w3.org/2000/svg" xmlns:xlink="http://www.w3.org/1999/xlink" viewBox="0 0 234.22 105.9"><defs><style>.cls-1,.cls-5{fill:none;}.cls-2{fill:#7b7979;}.cls-3{fill:#446ebf;}.cls-4{clip-path:url(#clip-path);}.cls-5{stroke:#446ebf;stroke-miterlimit:10;stroke-width:2.49px;}.cls-6{fill:#486bbd;}</style><clipPath id="clip-path" transform="translate(-2.78 -6.59)"><rect class="cls-1" x="52.58" y="6.69" width="118.74" height="51.13"/></clipPath></defs><g id="surface1"><path class="cls-2" d="M2.78,94.5H8.15V54H59.76V49.4H8.15V16.46H62.82v-4.6h-60V94.5" transform="translate(-2.78 -6.59)"/><path class="cls-2" d="M207.22,52.27h-36V16.46h37.34c11.68,0,22.12,3.44,22.12,16.85C230.68,52.27,212.39,52.27,207.22,52.27Zm27.39,19.25c-.1-8.91-5.46-15.9-15.52-17.14v-.2C230.78,51.5,236,42.31,236,33.69c0-17.33-12.06-21.83-27.86-21.83H166V94.5h5.36V56.86h36.77c16.28,0,21,4,21.26,18.39.38,12.64.77,17.81,2.3,19.25H237c-1.72-3.07-2.2-7.86-2.39-23" transform="translate(-2.78 -6.59)"/><path class="cls-3" d="M112.23,12.24c22.31,0,36.48,13.89,39.45,31.7h6c-3.07-20.69-19.54-36.1-45.49-36.1S69.72,23.35,66.65,44h6c3-17.9,17.14-31.79,39.54-31.79" transform="translate(-2.78 -6.59)"/><g class="cls-4"><path class="cls-5" d="M112.23,12.24c22.31,0,36.48,13.89,39.45,31.7h6c-3.07-20.69-19.54-36.1-45.49-36.1S69.72,23.35,66.65,44h6C75.65,26.13,89.83,12.24,112.23,12.24Z" transform="translate(-2.78 -6.59)"/></g><path class="cls-6" d="M112.23,90.28c-22.5,0-36.67-13.88-39.54-31.88h-6c3.07,20.78,19.54,36.29,45.68,36.29s42.51-15.51,45.58-36.29h-6c-3.06,18-17.23,31.88-39.64,31.88" transform="translate(-2.78 -6.59)"/><path class="cls-5" d="M112.23,90.28c-22.5,0-36.67-13.88-39.54-31.88h-6c3.07,20.78,19.54,36.29,45.68,36.29s42.51-15.51,45.58-36.29h-6C148.81,76.4,134.64,90.28,112.23,90.28Z" transform="translate(-2.78 -6.59)"/><path class="cls-2" d="M2.78,103.11H8.53v1.44H4.32v2.59H8.05v1.43H4.32v3.83H2.78v-9.29" transform="translate(-2.78 -6.59)"/><path class="cls-2" d="M15.81,107.71h0c0-2.11-1.06-3.35-2.49-3.35s-2.49,1.34-2.49,3.25v.1c0,2,1.05,3.26,2.49,3.26S15.81,109.72,15.81,107.71Zm-6.51.1v-.1c0-2.78,1.72-4.69,4.11-4.69s4,1.91,4,4.69v.1c0,2.77-1.72,4.69-4.11,4.69s-4-2-4-4.69" transform="translate(-2.78 -6.59)"/><path class="cls-2" d="M18.58,108.76v-5.65h1.54v5.65c0,1.54.76,2.3,1.91,2.3s1.92-.76,1.92-2.2v-5.75h1.53v5.65c0,2.49-1.34,3.74-3.45,3.74a3.41,3.41,0,0,1-3.45-3.74" transform="translate(-2.78 -6.59)"/><path class="cls-2" d="M27,103.11h1.44l4,6.13v-6.13H34v9.2H32.76L28.54,106v6.32H27v-9.2" transform="translate(-2.78 -6.59)"/><path class="cls-2" d="M37.16,104.45v6.42H38.4c1.73,0,2.78-1.15,2.78-3.16v-.1c0-2-1.15-3.16-2.78-3.16Zm-1.53-1.34H38.4a4.25,4.25,0,0,1,4.41,4.5v.1a4.28,4.28,0,0,1-4.41,4.6H35.63v-9.2" transform="translate(-2.78 -6.59)"/><path class="cls-2" d="M48.36,108.76,47,105l-1.34,3.73Zm-2-5.74h1.44l3.35,9.29H49.51l-.76-2.21H45.2l-.76,2.21H42.91L46.35,103" transform="translate(-2.78 -6.59)"/><path class="cls-2" d="M53.06,104.55h-2.4v-1.44H57v1.44H54.59v7.76H53.06v-7.76" transform="translate(-2.78 -6.59)"/><path class="cls-2" d="M58.13,103.11h1.53v9.2H58.13v-9.2" transform="translate(-2.78 -6.59)"/><path class="cls-2" d="M67.61,107.71h0c0-2.11-1-3.35-2.49-3.35s-2.49,1.34-2.49,3.25v.1c0,2,1,3.26,2.49,3.26S67.61,109.72,67.61,107.71Zm-6.51.1v-.1c0-2.78,1.72-4.69,4.12-4.69s4,1.91,4,4.69v.1c0,2.77-1.73,4.69-4.12,4.69s-4-2-4-4.69" transform="translate(-2.78 -6.59)"/><path class="cls-2" d="M70.58,103.11H72l4,6.13v-6.13h1.43v9.2H76.23L72.11,106v6.32H70.58v-9.2" transform="translate(-2.78 -6.59)"/><path class="cls-2" d="M82.26,103.11H88v1.44H83.79v2.59h3.74v1.43H83.79v3.83H82.26v-9.29" transform="translate(-2.78 -6.59)"/><path class="cls-2" d="M95.28,107.71h0c0-2.11-1-3.35-2.49-3.35s-2.49,1.34-2.49,3.25v.1c0,2,1.06,3.26,2.49,3.26S95.28,109.72,95.28,107.71Zm-6.6.1v-.1c0-2.78,1.72-4.69,4.11-4.69s4,1.91,4,4.69v.1c0,2.77-1.73,4.69-4.12,4.69s-4-2-4-4.69" transform="translate(-2.78 -6.59)"/><path class="cls-2" d="M101.32,107.71a1.62,1.62,0,0,0,1.82-1.63h0c0-1-.68-1.53-1.82-1.53H99.69v3.16Zm-3.16-4.6h3.35A3.42,3.42,0,0,1,104,104a2.72,2.72,0,0,1,.76,2v.09a2.61,2.61,0,0,1-1.91,2.68l2.2,3.55h-1.72l-1.92-3.26H99.88v3.26H98.35v-9.2" transform="translate(-2.78 -6.59)"/><path class="cls-2" d="M115.3,107.71h0c0-2.11-1.06-3.35-2.49-3.35s-2.49,1.34-2.49,3.25v.1c0,2,1.05,3.26,2.49,3.26S115.3,109.72,115.3,107.71Zm-6.52.1v-.1c0-2.78,1.73-4.69,4.12-4.69s4,1.91,4,4.69v.1c0,2.77-1.72,4.69-4.11,4.69s-4-2-4-4.69" transform="translate(-2.78 -6.59)"/><path class="cls-2" d="M121.42,107.71a1.62,1.62,0,0,0,1.82-1.63h0c0-1-.67-1.53-1.82-1.53H119.8v3.16Zm-3.16-4.6h3.36a3.42,3.42,0,0,1,2.49.87,2.76,2.76,0,0,1,.76,2v.09a2.61,2.61,0,0,1-1.91,2.68l2.2,3.55h-1.72l-1.92-3.26H120v3.26h-1.53v-9.2" transform="translate(-2.78 -6.59)"/><path class="cls-2" d="M130.81,108.76,129.47,105l-1.34,3.73Zm-2-5.74h1.43l3.36,9.29h-1.54l-.76-2.21h-3.55l-.76,2.21h-1.53L128.8,103" transform="translate(-2.78 -6.59)"/><path class="cls-2" d="M134.64,103.11h1.53v7.76h3.93v1.44h-5.46v-9.2" transform="translate(-2.78 -6.59)"/><path class="cls-2" d="M147.37,107.71a1.62,1.62,0,0,0,1.82-1.63h0c0-1-.67-1.53-1.82-1.53h-1.62v3.16Zm-3.16-4.6h3.36a3.38,3.38,0,0,1,2.48.87,2.73,2.73,0,0,1,.77,2v.09a2.62,2.62,0,0,1-1.91,2.68l2.2,3.55h-1.82l-1.92-3.26h-1.53v3.26h-1.53v-9.2" transform="translate(-2.78 -6.59)"/><path class="cls-2" d="M152.07,103.11h5.84v1.34H153.6v2.49h3.83v1.34H153.6v2.59h4.31v1.34h-5.84v-9.1" transform="translate(-2.78 -6.59)"/><path class="cls-2" d="M159.25,103.11h1.53v3.83h3.64v-3.83H166v9.2h-1.53v-3.93h-3.64v3.93h-1.53v-9.2" transform="translate(-2.78 -6.59)"/><path class="cls-2" d="M172.27,108.76,170.93,105l-1.34,3.73Zm-2-5.74h1.44l3.35,9.29h-1.63l-.77-2.21h-3.54l-.77,2.21h-1.53l3.45-9.29" transform="translate(-2.78 -6.59)"/><path class="cls-2" d="M179.45,108.28h-1.82v2.59h1.92c1,0,1.72-.48,1.72-1.34h0C181.18,108.76,180.6,108.28,179.45,108.28Zm1.34-2.58c0-.77-.57-1.25-1.53-1.25h-1.72V107h1.62c1,0,1.63-.48,1.63-1.34Zm-4.69-2.59h3.26a3.76,3.76,0,0,1,2.39.77,2.18,2.18,0,0,1,.57,1.53h0a2.3,2.3,0,0,1-1.34,2.11,2.17,2.17,0,0,1,1.73,2.2v.1c0,1.62-1.34,2.49-3.26,2.49H176.1v-9.2" transform="translate(-2.78 -6.59)"/><path class="cls-2" d="M184,103.11h1.53v9.2H184v-9.2" transform="translate(-2.78 -6.59)"/><path class="cls-2" d="M187.21,103.11h1.53v7.76h3.93v1.44h-5.46v-9.2" transform="translate(-2.78 -6.59)"/><path class="cls-2" d="M193.81,103.11h1.54v9.2h-1.54v-9.2" transform="translate(-2.78 -6.59)"/><path class="cls-2" d="M199,104.55h-2.4v-1.44h6.32v1.44h-2.39v7.76H199v-7.76" transform="translate(-2.78 -6.59)"/><path class="cls-2" d="M207.7,108.76,206.36,105,205,108.76Zm-2-5.74h1.43l3.36,9.29h-1.63l-.77-2.21h-3.54l-.77,2.21h-1.53l3.45-9.29" transform="translate(-2.78 -6.59)"/><path class="cls-2" d="M212.39,104.55H210v-1.44h6.32v1.44h-2.4v7.76h-1.53v-7.76" transform="translate(-2.78 -6.59)"/><path class="cls-2" d="M217.56,103.11h1.53v9.2h-1.53v-9.2" transform="translate(-2.78 -6.59)"/><path class="cls-2" d="M227,107.71h0c0-2.11-1-3.35-2.49-3.35s-2.49,1.34-2.49,3.25v.1c0,2,1.06,3.26,2.49,3.26S227,109.72,227,107.71Zm-6.61.1v-.1c0-2.78,1.73-4.69,4.12-4.69s4,1.91,4,4.69v.1c0,2.77-1.72,4.69-4.11,4.69s-4-2-4-4.69" transform="translate(-2.78 -6.59)"/><path class="cls-2" d="M229.91,103.11h1.44l4,6.13v-6.13h1.53v9.2h-1.24L231.45,106v6.32h-1.54v-9.2" transform="translate(-2.78 -6.59)"/></g></svg>