<?xml version="1.0" encoding="utf-8"?>
<!-- Generator: Adobe Illustrator 22.1.0, SVG Export Plug-In . SVG Version: 6.00 Build 0)  -->
<svg version="1.1" id="Слой_1" xmlns="http://www.w3.org/2000/svg" xmlns:xlink="http://www.w3.org/1999/xlink" x="0px" y="0px"
	 viewBox="0 0 883.8 733.2" style="enable-background:new 0 0 883.8 733.2;" xml:space="preserve">
<style type="text/css">
	.st0{fill:#FFFFFF;}
	.st1{fill:#A07730;}
</style>
<g>
	<rect x="26.3" y="11.1" class="st0" width="831.1" height="711.1"/>
	<g>
		<path class="st1" d="M518.9,82.6l-2.2-1.2L405.5,287.5l43.4-0.7l1.4-47.9l34.4,0.8l-0.7,47.4l104-0.1c-1.8,11.3-4.9,22.1-8.9,32.4
			l-93.1,0.1l-2.7,90.7c-11.4,3.8-23.3,6.4-35.6,7.5l1.2-97.9l-86.9,1.1l0.4-28.8L484.6,70.6c-1.5-0.8-3-1.4-4.6-1.8
			c-11.4-2.7-23.1-4.5-35.2-5.2c-109.3-6.2-203.3,77.6-209.5,187c-3.4,60.4,20.7,116.2,61.4,155l21.2-38.3
			c-27.4-30-43.1-70.6-40.6-114.3c4.9-86.2,79-152.3,165.2-147.4c5.5,0.3,10.9,0.9,16.2,1.8L357.5,290.8L357,326l86.9-1.1l-1.2,93.2
			c-5.9,0.3-11.9,0.4-18,0c-27.9-1.6-53.7-10.4-75.6-24.6l-20.2,36.9c28.1,17.5,61,28.3,96.5,29.7c107.7,4.5,199.9-78.8,206.4-186.4
			C636.8,190.7,589.7,116.4,518.9,82.6z M488.3,408.5l2.5-83.9l86.2-0.1C560.1,363.3,527.8,393.7,488.3,408.5z M589.9,270.8
			c-0.2,3.8-0.6,7.6-1.1,11.3l-99.7,0.1l0.7-47.3l-44.3-1l-1.4,48.1l-30.1,0.5l87.2-161.7C556.7,147.3,593.6,205.6,589.9,270.8z"/>
	</g>
	<g>
		<g>
			<g>
				<path d="M104.7,584.8l-4.7,0l15.3-36.7l5.2,0l15.1,36.8l-4.7,0l-3.4-8.5l-19.3,0L104.7,584.8z M109.6,572.4l16.5,0l-8.2-19.8
					L109.6,572.4z"/>
			</g>
			<g>
				<path d="M140.4,584.9l0.1-38.1l4.3,0l-0.1,38.1L140.4,584.9z"/>
			</g>
			<g>
				<path d="M153.4,584.9l0.1-38.1l4.3,0l-0.1,38.1L153.4,584.9z"/>
			</g>
			<g>
				<path d="M183.4,567.3l0,4.1l-17.7,0l0-4.1L183.4,567.3z"/>
			</g>
			<g>
				<path d="M203.2,585.6c-3.9,0-7.2-1.3-9.8-3.9c-2.6-2.6-3.9-5.8-3.9-9.6s1.3-7,4-9.6c2.6-2.6,5.9-3.9,9.9-3.9
					c3.9,0,7.2,1.3,9.8,3.9c2.6,2.6,3.9,5.8,3.9,9.6c0,3.8-1.3,7-4,9.6S207.1,585.6,203.2,585.6z M193.8,572c0,2.7,0.9,5,2.7,6.8
					c1.8,1.8,4,2.8,6.8,2.8s5-0.9,6.8-2.7c1.8-1.8,2.7-4.1,2.7-6.8c0-2.7-0.9-5-2.7-6.8c-1.8-1.8-4-2.7-6.8-2.7
					c-2.7,0-5,0.9-6.8,2.7C194.7,567.1,193.8,569.3,193.8,572z"/>
			</g>
			<g>
				<path d="M228.1,585.1l-4.3,0l0.1-26l4.3,0l0,3.9c0.8-1.3,1.9-2.3,3.5-3.2c1.5-0.8,3.2-1.2,5.2-1.2c3.4,0,6.1,1,8.1,2.9
					c1.9,1.9,2.9,4.6,2.9,7.9l0,15.8l-4.3,0l0-14.7c0-5.1-2.6-7.7-7.3-7.7c-2.3,0-4.2,0.7-5.7,2.1s-2.3,3.3-2.3,5.6L228.1,585.1z"/>
			</g>
			<g>
				<path d="M273.1,567.6l0,4.1l-17.7,0l0-4.1L273.1,567.6z"/>
			</g>
			<g>
				<path d="M283.2,571.5l13.1,0l0-10.8l4.4,0l-0.1,10.7l5.6,0l0,3.9l-5.6,0l0,9.8l-4.4,0l0-9.8l-18.1,0l0-4.1l16.7-22.8l4.9,0
					L283.2,571.5z"/>
			</g>
			<g>
				<path d="M363.4,563.1l-4.8,0l0-3.7l4.8,0l0-8.3l4.2,0l0,8.3l8.6,0l0,3.7l-8.5,0l0,14c0,3.3,1.7,4.9,4.5,4.9c1.6,0,3.1-0.3,4.4-1
					l0.6,3.7c-1.2,0.6-3.4,1.2-5.5,1.1c-5.1,0-8.3-2.9-8.3-8.1L363.4,563.1z"/>
			</g>
			<g>
				<path d="M386.9,585.4l-4.3,0l0.1-26l4.3,0l0,3.8c1.4-2.9,4-4.4,7-4.4c1.4,0,2.7,0.2,3.7,0.7l-0.4,4c-1.2-0.4-2.3-0.7-3.4-0.7
					c-3.5,0-6.8,2.3-6.9,8.1L386.9,585.4z"/>
			</g>
			<g>
				<path d="M413.6,559c3.2,0,6.4,1.2,8.7,3.2c2.3,2.1,3.8,5.3,3.8,9c0,1-0.1,1.8-0.1,2.4l-21.4-0.1c0.1,2.4,1,4.5,2.7,6.1
					c1.7,1.7,3.8,2.5,6.5,2.5c3.4,0,6.2-1.4,8.2-4.3l3.3,2.4c-1.2,1.8-2.8,3.3-4.8,4.3c-2,1-4.3,1.6-6.7,1.6
					c-7.7,0.1-13.7-6.1-13.5-13.6C400.3,564.9,406.2,559,413.6,559z M407.7,564.9c-1.7,1.3-2.7,3-3,5.1l17.1,0
					c-0.1-2.1-1-3.8-2.5-5.1c-1.5-1.3-3.4-2-5.7-2C411.4,562.9,409.4,563.6,407.7,564.9z"/>
			</g>
			<g>
				<path d="M463.9,563.4l-4.8,0l0-3.7l4.8,0l0-8.3l4.2,0l0,8.3l8.6,0l0,3.7l-8.5,0l0,14c0,3.3,1.7,4.9,4.5,4.9c1.6,0,3.1-0.3,4.4-1
					l0.6,3.7c-1.2,0.6-3.4,1.2-5.5,1.1c-5.1,0-8.3-2.9-8.3-8.1L463.9,563.4z"/>
			</g>
			<g>
				<path d="M483.1,585.7l0.1-26l4.3,0l0,3.9c1.5-2.6,4.7-4.4,8.5-4.4c4.5,0,7.9,2,9.5,5.5c1.8-3.4,5.3-5.4,9.5-5.4
					c3.3,0,6,1,7.9,2.9c1.9,2,2.9,4.5,2.9,7.7l0,15.9l-4.3,0l0-14.8c0-4.8-2.6-7.6-7.1-7.6c-2.2,0-4,0.7-5.5,2.1s-2.3,3.2-2.3,5.5
					l0,14.9l-4.3,0l0-14.8c0-4.8-2.6-7.6-7-7.6c-2.2,0-4.1,0.7-5.6,2.1c-1.5,1.4-2.3,3.3-2.3,5.6l0,14.7L483.1,585.7z"/>
			</g>
			<g>
				<path d="M545.6,559.3c3.2,0,6.4,1.2,8.7,3.2c2.3,2.1,3.8,5.3,3.8,9c0,1-0.1,1.8-0.1,2.4l-21.4-0.1c0.1,2.4,1,4.5,2.7,6.1
					c1.7,1.7,3.8,2.5,6.5,2.5c3.4,0,6.2-1.4,8.2-4.3l3.3,2.4c-1.2,1.8-2.8,3.3-4.8,4.3c-2,1-4.3,1.6-6.7,1.6
					c-7.7,0.1-13.7-6.1-13.5-13.6C532.2,565.2,538.2,559.3,545.6,559.3z M539.7,565.2c-1.7,1.3-2.7,3-3,5.1l17.1,0
					c-0.1-2.1-1-3.8-2.5-5.1c-1.5-1.3-3.4-2-5.7-2C543.3,563.2,541.3,563.9,539.7,565.2z"/>
			</g>
			<g>
				<path d="M569.1,585.9l-4.3,0l0.1-26l4.3,0l0,3.9c0.8-1.3,1.9-2.3,3.5-3.2c1.5-0.8,3.2-1.2,5.2-1.2c3.4,0,6.1,1,8.1,2.9
					c1.9,1.9,2.9,4.6,2.9,7.9l0,15.8l-4.3,0l0-14.7c0-5.1-2.6-7.7-7.3-7.7c-2.3,0-4.2,0.7-5.7,2.1c-1.5,1.4-2.3,3.3-2.3,5.6
					L569.1,585.9z"/>
			</g>
			<g>
				<path d="M598.5,563.7l-4.8,0l0-3.7l4.8,0l0-8.3l4.2,0l0,8.3l8.6,0l0,3.7l-8.5,0l0,14c0,3.3,1.7,4.9,4.5,4.9c1.6,0,3.1-0.3,4.4-1
					l0.6,3.7c-1.2,0.6-3.4,1.2-5.5,1.1c-5.1,0-8.3-2.9-8.3-8.1L598.5,563.7z"/>
			</g>
			<g>
				<path d="M632.2,582.7c-2.6-2.6-3.9-5.8-3.9-9.6c0-3.8,1.3-7,4-9.6c2.7-2.6,5.9-3.9,9.8-3.9c2.6,0,5,0.6,7.1,1.8
					c2.1,1.2,3.7,2.9,4.8,5.1l-3.4,2.1c-1.8-3.2-4.8-5-8.5-5.1c-2.6,0-4.9,0.9-6.7,2.7c-1.8,1.8-2.8,4.1-2.8,6.8
					c0,2.7,0.9,5,2.7,6.8c1.8,1.8,4,2.8,6.8,2.8c3.5,0,6.6-1.9,8.3-4.9l3.4,2.1c-1.1,2.1-2.6,3.7-4.8,4.9c-2.1,1.2-4.5,1.8-7,1.8
					C638.2,586.6,634.9,585.3,632.2,582.7z"/>
			</g>
			<g>
				<path d="M671.8,586.7c-3.9,0-7.2-1.3-9.8-3.9c-2.6-2.6-3.9-5.8-3.9-9.6s1.3-7,4-9.6c2.6-2.6,5.9-3.9,9.9-3.9s7.2,1.3,9.8,3.9
					c2.6,2.6,3.9,5.8,3.9,9.6c0,3.8-1.3,7-4,9.6C679.1,585.4,675.7,586.7,671.8,586.7z M662.4,573.2c0,2.7,0.9,5,2.7,6.8
					c1.8,1.8,4,2.8,6.8,2.8s5-0.9,6.8-2.7c1.8-1.8,2.7-4.1,2.7-6.8c0-2.7-0.9-5-2.7-6.8c-1.8-1.8-4-2.7-6.8-2.7
					c-2.7,0-5,0.9-6.8,2.7C663.3,568.2,662.4,570.5,662.4,573.2z"/>
			</g>
			<g>
				<path d="M696.7,586.2l-4.3,0l0.1-26l4.3,0l0,3.9c0.8-1.3,1.9-2.3,3.5-3.2c1.5-0.8,3.2-1.2,5.2-1.2c3.4,0,6.1,1,8.1,2.9
					c1.9,1.9,2.9,4.6,2.9,7.9l0,15.8l-4.3,0l0-14.7c0-5.1-2.6-7.7-7.3-7.7c-2.3,0-4.2,0.7-5.7,2.1c-1.5,1.4-2.3,3.3-2.3,5.6
					L696.7,586.2z"/>
			</g>
			<g>
				<path d="M726.7,582.9c-2.6-2.6-3.9-5.8-3.9-9.6s1.3-7,4-9.6c2.7-2.6,5.9-3.9,9.8-3.9c2.6,0,5,0.6,7.1,1.8
					c2.1,1.2,3.7,2.9,4.8,5.1l-3.4,2.1c-1.8-3.2-4.8-5-8.5-5.1c-2.6,0-4.9,0.9-6.7,2.7c-1.8,1.8-2.8,4.1-2.8,6.8
					c0,2.7,0.9,5,2.7,6.8c1.8,1.8,4,2.8,6.8,2.8c3.5,0,6.6-1.9,8.3-4.9l3.4,2.1c-1.1,2.1-2.6,3.7-4.8,4.9s-4.5,1.8-7,1.8
					C732.6,586.9,729.3,585.6,726.7,582.9z"/>
			</g>
			<g>
				<path d="M765.9,559.9c3.2,0,6.4,1.2,8.7,3.2c2.3,2.1,3.8,5.3,3.8,9c0,1-0.1,1.8-0.1,2.4l-21.4-0.1c0.1,2.4,1,4.5,2.7,6.1
					c1.7,1.7,3.8,2.5,6.5,2.5c3.4,0,6.2-1.4,8.2-4.3l3.3,2.4c-1.2,1.8-2.8,3.3-4.8,4.3s-4.3,1.6-6.7,1.6
					c-7.7,0.1-13.7-6.1-13.5-13.6C752.5,565.8,758.5,559.9,765.9,559.9z M760,565.8c-1.7,1.3-2.7,3-3,5.1l17.1,0
					c-0.1-2.1-1-3.8-2.5-5.1c-1.5-1.3-3.4-2-5.7-2C763.7,563.8,761.7,564.5,760,565.8z"/>
			</g>
			<g>
				<path d="M789.4,597.3l-4.3,0l0.1-36.8l4.3,0l0,4.2c2.1-2.9,5.6-4.8,10-4.8c7.3-0.1,13.2,6,13.1,13.6c0,3.9-1.3,7.1-3.8,9.6
					c-2.5,2.5-5.6,3.8-9.4,3.8c-4.5,0-7.9-1.9-10-4.8L789.4,597.3z M792.2,566.7c-1.8,1.9-2.8,4.2-2.8,6.9c0,2.7,0.9,5,2.7,6.8
					c1.8,1.8,4.1,2.8,6.9,2.8c2.7,0,4.9-0.9,6.7-2.7c1.7-1.8,2.6-4.1,2.6-6.8s-0.9-5-2.6-6.9c-1.8-1.9-3.9-2.8-6.6-2.8
					C796.4,563.9,794.1,564.8,792.2,566.7z"/>
			</g>
			<g>
				<path d="M820.7,564.3l-4.8,0l0-3.7l4.8,0l0-8.3l4.2,0l0,8.3l8.6,0l0,3.7l-8.5,0l0,14c0,3.3,1.7,4.9,4.5,4.9c1.6,0,3.1-0.3,4.4-1
					l0.6,3.7c-1.2,0.6-3.4,1.2-5.5,1.1c-5.1,0-8.3-2.9-8.3-8.1L820.7,564.3z"/>
			</g>
			<g>
				<path d="M109.9,653.9c-4.6-4.6-7.5-11.2-7.5-18.5c0-4.8,1.1-9.2,3.4-13.2c2.3-4,5.3-7.1,9.3-9.3c3.9-2.2,8.3-3.3,13.1-3.3
					c4.6,0,8.9,1.1,12.9,3.4c4,2.2,7.1,5.3,9.6,9.2l-7.9,5.6c-3.6-6-8.5-8.9-14.6-9c-4.6,0-8.3,1.5-11.2,4.6
					c-2.9,3.1-4.4,7.1-4.4,11.9c0,4.8,1.5,8.8,4.4,12c3,3.1,6.7,4.7,11.3,4.7c6,0,11.1-2.9,15.2-8.6l7.4,5.3c-2.4,4-5.6,7.1-9.6,9.3
					c-4,2.2-8.4,3.3-13,3.3C121.2,661.3,114.5,658.5,109.9,653.9z"/>
			</g>
			<g>
				<path d="M155.5,642.9c0.1-5.4,1.8-9.8,5.3-13.3c3.5-3.4,7.8-5.2,13.1-5.1c5,0,9.1,1.6,12.3,4.7s4.8,7.3,4.8,12.6
					c0,1.3-0.1,2.6-0.3,4l-25.7-0.1c0.3,2,1.4,3.7,3.3,5.1c1.8,1.4,3.9,2,6.2,2.1c3.6,0,6.6-1.6,8.9-5l6.7,5.1
					c-1.6,2.7-3.9,4.8-6.7,6.3c-2.9,1.5-5.9,2.2-9.1,2.2C163,661.6,155.2,653.1,155.5,642.9z M182.1,639.5c-0.3-2-1.1-3.7-2.6-5
					c-1.5-1.3-3.4-2-5.6-2c-2.3,0-4.3,0.7-5.9,1.9c-1.6,1.3-2.6,3-2.9,5L182.1,639.5z"/>
			</g>
			<g>
				<path d="M208.6,660.8l-9.5,0l0.1-35.5l9,0l0.2,4.1c2.1-2.8,6-4.8,11-4.8c4.1,0,7.5,1.3,10.1,3.8c2.6,2.6,3.9,5.9,3.9,10.2
					l-0.1,22.3l-9.5,0l0.1-19.9c0-4.8-3-7.6-7.3-7.6c-2.2,0-4.1,0.7-5.6,2c-1.5,1.4-2.3,3.2-2.3,5.6L208.6,660.8z"/>
			</g>
			<g>
				<path d="M245.1,633.3l-6,0l0-7.9l6,0l0-11.4l9.2,0l0,11.4l10.7,0l0,7.9l-10.4,0l0,14.6c0,3.6,1.9,5.3,5.2,5.3c2,0,4-0.4,6-1.2
					l0.9,7.9c-2.2,1.1-5.7,1.8-8.6,1.8c-8,0-13.1-4.3-13-12.4L245.1,633.3z"/>
			</g>
			<g>
				<path d="M269.7,643.2c0.1-5.4,1.8-9.8,5.3-13.3c3.5-3.4,7.8-5.2,13.1-5.1c5,0,9.1,1.6,12.3,4.7c3.2,3.2,4.8,7.3,4.8,12.6
					c0,1.3-0.1,2.6-0.3,4l-25.7-0.1c0.3,2,1.4,3.7,3.3,5.1c1.8,1.4,3.9,2,6.2,2.1c3.6,0,6.6-1.6,8.9-5l6.7,5.1
					c-1.6,2.7-3.9,4.8-6.7,6.3c-2.9,1.5-5.9,2.2-9.1,2.2C277.2,661.9,269.5,653.4,269.7,643.2z M296.4,639.8c-0.3-2-1.1-3.7-2.6-5
					c-1.5-1.3-3.4-2-5.6-2c-2.3,0-4.3,0.7-5.9,1.9c-1.6,1.3-2.6,3-2.9,5L296.4,639.8z"/>
			</g>
			<g>
				<path d="M313.4,661.1l0.1-35.5l9.2,0l0.2,4.8c1.8-3.7,5.2-5.6,9.3-5.6c1.5,0,3.1,0.3,4.6,0.8l-0.8,8.5c-1.6-0.6-3-0.8-4.4-0.8
					c-4.2,0-8.6,2.2-8.6,9.6l0,18.2L313.4,661.1z"/>
			</g>
			<g>
				<path d="M362.7,656.6c-3.6-3.5-5.4-7.9-5.4-13.2c0-5.3,1.8-9.7,5.5-13.2c3.6-3.5,8.1-5.3,13.6-5.3c5.4,0,10,1.8,13.6,5.3
					c3.6,3.6,5.4,8,5.4,13.2c0.2,10.3-8.3,18.7-19,18.5C370.8,662,366.3,660.2,362.7,656.6z M369.4,650.6c1.8,1.9,4.1,2.8,6.8,2.8
					s5.1-0.9,6.9-2.8c1.8-1.9,2.7-4.2,2.7-7.1c0-2.8-0.9-5.2-2.6-7.1c-1.8-1.9-4.1-2.8-6.9-2.8c-2.8,0-5,0.9-6.9,2.8
					c-1.8,1.9-2.7,4.2-2.7,7.1C366.7,646.3,367.6,648.7,369.4,650.6z"/>
			</g>
			<g>
				<path d="M405,633.7l-6.3,0l0-7.9l6.3,0l0-3.5c0-4.1,1.3-7.4,3.8-10c2.5-2.5,6.2-3.8,10.9-3.8c2,0,4.3,0.4,6.7,1.3l-1,7.8
					c-1.4-0.6-2.9-0.9-4.7-0.9c-4,0-6.5,1.9-6.5,6.2l0,2.9l10.1,0l0,7.9l-9.9,0l-0.1,27.6l-9.5,0L405,633.7z"/>
			</g>
			<g>
				<path d="M448.1,661.4l0.1-50.3l35.8,0.1l0,8.7l-25.8-0.1l0,11.6l22.4,0.1l0,8.7l-22.4-0.1l0,12.7l26.3,0.1l0,8.6L448.1,661.4z"
					/>
			</g>
			<g>
				<path d="M488.1,661.6l13.1-18.1L488.3,626l10.9,0l7.7,11l7.7-10.9l10.9,0l-12.9,17.4l13.1,18.2l-10.7,0l-8.1-11.8l-8.1,11.8
					L488.1,661.6z"/>
			</g>
			<g>
				<path d="M527.6,643.8c0-5.2,1.9-9.6,5.5-13.2c3.7-3.6,8.2-5.3,13.4-5.3c3.4,0,6.7,0.9,9.7,2.7c3,1.8,5.2,4.3,6.8,7.5l-7.2,4.6
					c-2-4-5.5-6-9.1-6c-2.8,0-5.1,0.9-6.9,2.8c-1.8,1.9-2.7,4.3-2.8,7.1c0,2.8,0.9,5.1,2.7,7c1.8,1.9,4.1,2.9,6.8,2.9
					c4,0,7.2-2,9.5-6.1l6.8,4.8c-1.6,3.1-3.9,5.6-6.9,7.3c-3,1.7-6.2,2.6-9.7,2.6C535.8,662.6,527.3,654,527.6,643.8z"/>
			</g>
			<g>
				<path d="M567.6,644c0.1-5.4,1.8-9.8,5.3-13.3c3.5-3.4,7.8-5.2,13.1-5.1c5,0,9.1,1.6,12.3,4.7c3.2,3.2,4.8,7.3,4.8,12.6
					c0,1.3-0.1,2.6-0.3,4l-25.7-0.1c0.3,2,1.4,3.7,3.3,5.1c1.8,1.4,3.9,2,6.2,2.1c3.6,0,6.6-1.6,8.9-5l6.7,5.1
					c-1.6,2.7-3.9,4.8-6.7,6.3c-2.9,1.5-5.9,2.2-9.1,2.2C575.1,662.7,567.3,654.2,567.6,644z M594.2,640.5c-0.3-2-1.1-3.7-2.6-5
					c-1.5-1.3-3.4-2-5.6-2c-2.3,0-4.3,0.7-5.9,1.9c-1.6,1.3-2.6,3-2.9,5L594.2,640.5z"/>
			</g>
			<g>
				<path d="M620.8,609.8l-0.1,52.1l-9.5,0l0.1-52.1L620.8,609.8z"/>
			</g>
			<g>
				<path d="M641.1,609.8l-0.1,52.1l-9.5,0l0.1-52.1L641.1,609.8z"/>
			</g>
			<g>
				<path d="M649.2,644.2c0.1-5.4,1.8-9.8,5.3-13.3c3.5-3.4,7.8-5.2,13.1-5.1c5,0,9.1,1.6,12.3,4.7c3.2,3.2,4.8,7.3,4.8,12.6
					c0,1.3-0.1,2.6-0.3,4l-25.7-0.1c0.3,2,1.4,3.7,3.3,5.1c1.8,1.4,3.9,2,6.2,2.1c3.6,0,6.6-1.6,8.9-5l6.7,5.1
					c-1.6,2.7-3.9,4.8-6.7,6.3c-2.9,1.5-5.9,2.2-9.1,2.2C656.7,662.9,648.9,654.4,649.2,644.2z M675.8,640.8c-0.3-2-1.1-3.7-2.6-5
					c-1.5-1.3-3.4-2-5.6-2c-2.3,0-4.3,0.7-5.9,1.9c-1.6,1.3-2.6,3-2.9,5L675.8,640.8z"/>
			</g>
			<g>
				<path d="M702.3,662.1l-9.5,0l0.1-35.5l9,0l0.2,4.1c2.1-2.8,6-4.8,11-4.8c4.1,0,7.5,1.3,10.1,3.8c2.6,2.6,3.9,5.9,3.9,10.2
					l-0.1,22.3l-9.5,0l0.1-19.9c0-4.8-3-7.6-7.3-7.6c-2.2,0-4.1,0.7-5.6,2c-1.5,1.4-2.3,3.2-2.3,5.6L702.3,662.1z"/>
			</g>
			<g>
				<path d="M734.7,644.3c0-5.2,1.9-9.6,5.5-13.2c3.7-3.6,8.2-5.3,13.4-5.3c3.4,0,6.7,0.9,9.7,2.7c3,1.8,5.2,4.3,6.8,7.5l-7.2,4.6
					c-2-4-5.5-6-9.1-6c-2.8,0-5.1,0.9-6.9,2.8c-1.8,1.9-2.7,4.3-2.8,7.1c0,2.8,0.9,5.1,2.7,7s4.1,2.9,6.8,2.9c4,0,7.2-2,9.5-6.1
					l6.8,4.8c-1.6,3.1-3.9,5.6-6.9,7.3c-3,1.7-6.2,2.6-9.7,2.6C743,663.2,734.5,654.5,734.7,644.3z"/>
			</g>
			<g>
				<path d="M774.8,644.5c0.1-5.4,1.8-9.8,5.3-13.3c3.5-3.4,7.8-5.2,13.1-5.1c5,0,9.1,1.6,12.3,4.7c3.2,3.2,4.8,7.3,4.8,12.6
					c0,1.3-0.1,2.6-0.3,4l-25.7-0.1c0.3,2,1.4,3.7,3.3,5.1c1.8,1.4,3.9,2,6.2,2.1c3.6,0,6.6-1.6,8.9-5l6.7,5.1
					c-1.6,2.7-3.9,4.8-6.7,6.3c-2.9,1.5-5.9,2.2-9.1,2.2C782.3,663.2,774.5,654.7,774.8,644.5z M801.4,641.1c-0.3-2-1.1-3.7-2.6-5
					c-1.5-1.3-3.4-2-5.6-2c-2.3,0-4.3,0.7-5.9,1.9c-1.6,1.3-2.6,3-2.9,5L801.4,641.1z"/>
			</g>
		</g>
		<g>
			<path d="M322.5,549.1c-1.4-1.4-3.3-2.2-5.3-2.2s-3.9,0.8-5.3,2.2c-1.4,1.4-2.2,3.3-2.2,5.3s0.8,3.9,2.2,5.3
				c1.4,1.4,3.3,2.2,5.3,2.2s3.9-0.8,5.3-2.2c1.4-1.4,2.2-3.3,2.2-5.3S323.9,550.5,322.5,549.1z M317.2,560.6
				c-3.4,0-6.2-2.8-6.2-6.2s2.8-6.2,6.2-6.2c3.4,0,6.2,2.8,6.2,6.2S320.6,560.6,317.2,560.6z"/>
			<path d="M318.9,554.6c1-0.4,1.4-1.1,1.4-2c0-0.7-0.3-1.3-0.9-1.7c-0.6-0.4-1.5-0.6-2.5-0.6c-0.7,0-1.5,0.1-2.4,0.2v8.1h1.2V555
				h1.5c1.2,0,2,1.2,2.3,3.6h1.2c-0.2-1.2-0.4-2.1-0.7-2.7C319.7,555.3,319.4,554.9,318.9,554.6z M317.1,554.1h-1.4v-2.8
				c0.3,0,0.7-0.1,1.2-0.1c1.5,0,2.3,0.5,2.3,1.4C319.2,553.6,318.5,554.1,317.1,554.1z"/>
		</g>
		<path d="M451.9,559.4v3.7c-1.1-1.3-2.3-2.2-3.7-2.9c-1.7-0.9-3.7-1.4-5.8-1.4c-3.7,0-6.9,1.3-9.5,4c-2.6,2.6-4,5.9-4,9.6
			c0,3.8,1.3,7.1,3.9,9.7c2.6,2.7,5.8,4,9.5,4c2.1,0,4-0.4,5.7-1.3c1.4-0.7,2.7-1.6,3.8-2.8v3.5h4.2v-26H451.9z M452.1,572.5
			c0,1.8-0.4,3.4-1.2,4.9c-0.8,1.4-2,2.6-3.5,3.4c-3,1.7-6.5,1.7-9.4,0c-1.4-0.8-2.6-2-3.5-3.6c-0.9-1.5-1.3-3.1-1.3-4.8
			c0-1.7,0.4-3.3,1.3-4.8c0.9-1.5,2-2.7,3.4-3.5c1.4-0.8,3-1.3,4.7-1.3c2.6,0,4.9,0.9,6.7,2.8C451.2,567.5,452.1,569.8,452.1,572.5z
			"/>
	</g>
</g>
<g>
</g>
<g>
</g>
<g>
</g>
<g>
</g>
<g>
</g>
<g>
</g>
</svg>
