<?xml version="1.0" encoding="utf-8"?>
<!-- Generator: Adobe Illustrator 22.1.0, SVG Export Plug-In . SVG Version: 6.00 Build 0)  -->
<svg version="1.1" id="Слой_1" xmlns="http://www.w3.org/2000/svg" xmlns:xlink="http://www.w3.org/1999/xlink" x="0px" y="0px"
	 viewBox="0 0 883.8 733.2" style="enable-background:new 0 0 883.8 733.2;" xml:space="preserve">
<style type="text/css">
	.st0{fill:#A07730;}
</style>
<g>
	<path class="st0" d="M527.2,187.3l-2.2-1.2L413.9,392.2l43.4-0.7l1.4-47.9l34.4,0.8l-0.7,47.4l104-0.1c-1.8,11.3-4.9,22.1-8.9,32.4
		l-93.1,0.1l-2.7,90.7c-11.4,3.8-23.3,6.4-35.6,7.5l1.2-97.9l-86.9,1.1l0.4-28.8l122.1-221.5c-1.5-0.8-3-1.4-4.6-1.8
		c-11.4-2.7-23.1-4.5-35.2-5.2c-109.3-6.2-203.3,77.6-209.5,187c-3.4,60.4,20.7,116.2,61.4,155l21.2-38.3
		c-27.4-30-43.1-70.6-40.6-114.3c4.9-86.2,79-152.3,165.2-147.4c5.5,0.3,10.9,0.9,16.2,1.8L365.8,395.5l-0.5,35.2l86.9-1.1
		l-1.2,93.2c-5.9,0.3-11.9,0.4-18,0c-27.9-1.6-53.7-10.4-75.6-24.6l-20.2,36.9c28.1,17.5,61,28.3,96.5,29.7
		c107.7,4.5,199.9-78.8,206.4-186.4C645.1,295.5,598,221.1,527.2,187.3z M496.7,513.2l2.5-83.9l86.2-0.1
		C568.4,468,536.1,498.4,496.7,513.2z M598.2,375.5c-0.2,3.8-0.6,7.6-1.1,11.3l-99.7,0.1l0.7-47.3l-44.3-1l-1.4,48.1l-30.1,0.5
		l87.2-161.7C565,252.1,601.9,310.3,598.2,375.5z"/>
</g>
<g>
</g>
<g>
</g>
<g>
</g>
<g>
</g>
<g>
</g>
<g>
</g>
</svg>
