<?xml version="1.0" encoding="utf-8"?>
<!-- Generator: Adobe Illustrator 22.1.0, SVG Export Plug-In . SVG Version: 6.00 Build 0)  -->
<svg version="1.1" id="Слой_1" xmlns="http://www.w3.org/2000/svg" xmlns:xlink="http://www.w3.org/1999/xlink" x="0px" y="0px"
	 viewBox="0 0 883.8 733.2" style="enable-background:new 0 0 883.8 733.2;" xml:space="preserve">
<style type="text/css">
	.st0{fill:#A07730;}
	.st1{fill:#FFFFFF;}
</style>
<rect x="5.8" y="5.8" width="850.5" height="717"/>
<g>
	<path d="M487.6,81.6l-2.2-1.2L374.2,286.5l43.4-0.7l1.4-47.9l34.4,0.8l-0.7,47.4l104-0.1c-1.8,11.3-4.9,22.1-8.9,32.4l-93.1,0.1
		l-2.7,90.7c-11.4,3.8-23.3,6.4-35.6,7.5l1.2-97.9l-86.9,1.1l0.4-28.8L453.3,69.6c-1.5-0.8-3-1.4-4.6-1.8
		c-11.4-2.7-23.1-4.5-35.2-5.2c-109.3-6.2-203.3,77.6-209.5,187c-3.4,60.4,20.7,116.2,61.4,155l21.2-38.3
		c-27.4-30-43.1-70.6-40.6-114.3c4.9-86.2,79-152.3,165.2-147.4c5.5,0.3,10.9,0.9,16.2,1.8L326.2,289.8l-0.5,35.2l86.9-1.1
		l-1.2,93.2c-5.9,0.3-11.9,0.4-18,0c-27.9-1.6-53.7-10.4-75.6-24.6l-20.2,36.9c28.1,17.5,61,28.3,96.5,29.7
		c107.7,4.5,199.9-78.8,206.4-186.4C605.5,189.7,558.4,115.4,487.6,81.6z M457,407.5l2.5-83.9l86.2-0.1
		C528.7,362.3,496.5,392.7,457,407.5z M558.6,269.8c-0.2,3.8-0.6,7.6-1.1,11.3l-99.7,0.1l0.7-47.3l-44.3-1l-1.4,48.1l-30.1,0.5
		l87.2-161.7C525.4,146.3,562.3,204.6,558.6,269.8z"/>
</g>
<g>
	<path class="st0" d="M487.6,81.6l-2.2-1.2L374.2,286.5l43.4-0.7l1.4-47.9l34.4,0.8l-0.7,47.4l104-0.1c-1.8,11.3-4.9,22.1-8.9,32.4
		l-93.1,0.1l-2.7,90.7c-11.4,3.8-23.3,6.4-35.6,7.5l1.2-97.9l-86.9,1.1l0.4-28.8L453.3,69.6c-1.5-0.8-3-1.4-4.6-1.8
		c-11.4-2.7-23.1-4.5-35.2-5.2c-109.3-6.2-203.3,77.6-209.5,187c-3.4,60.4,20.7,116.2,61.4,155l21.2-38.3
		c-27.4-30-43.1-70.6-40.6-114.3c4.9-86.2,79-152.3,165.2-147.4c5.5,0.3,10.9,0.9,16.2,1.8L326.2,289.8l-0.5,35.2l86.9-1.1
		l-1.2,93.2c-5.9,0.3-11.9,0.4-18,0c-27.9-1.6-53.7-10.4-75.6-24.6l-20.2,36.9c28.1,17.5,61,28.3,96.5,29.7
		c107.7,4.5,199.9-78.8,206.4-186.4C605.5,189.7,558.4,115.4,487.6,81.6z M457,407.5l2.5-83.9l86.2-0.1
		C528.7,362.3,496.5,392.7,457,407.5z M558.6,269.8c-0.2,3.8-0.6,7.6-1.1,11.3l-99.7,0.1l0.7-47.3l-44.3-1l-1.4,48.1l-30.1,0.5
		l87.2-161.7C525.4,146.3,562.3,204.6,558.6,269.8z"/>
</g>
<g>
	<g>
		<g>
			<path class="st1" d="M57.5,576.8l-4.7,0l15.3-36.7l5.2,0l15.1,36.8l-4.7,0l-3.4-8.5l-19.3,0L57.5,576.8z M62.4,564.5l16.5,0
				l-8.2-19.8L62.4,564.5z"/>
		</g>
		<g>
			<path class="st1" d="M93.2,576.9l0.1-38.1l4.3,0l-0.1,38.1L93.2,576.9z"/>
		</g>
		<g>
			<path class="st1" d="M106.2,576.9l0.1-38.1l4.3,0l-0.1,38.1L106.2,576.9z"/>
		</g>
		<g>
			<path class="st1" d="M136.2,559.4l0,4.1l-17.7,0l0-4.1L136.2,559.4z"/>
		</g>
		<g>
			<path class="st1" d="M156,577.6c-3.9,0-7.2-1.3-9.8-3.9c-2.6-2.6-3.9-5.8-3.9-9.6c0-3.8,1.3-7,4-9.6c2.6-2.6,5.9-3.9,9.9-3.9
				c3.9,0,7.2,1.3,9.8,3.9c2.6,2.6,3.9,5.8,3.9,9.6c0,3.8-1.3,7-4,9.6C163.2,576.3,159.9,577.6,156,577.6z M146.6,564
				c0,2.7,0.9,5,2.7,6.8c1.8,1.8,4,2.8,6.8,2.8s5-0.9,6.8-2.7c1.8-1.8,2.7-4.1,2.7-6.8c0-2.7-0.9-5-2.7-6.8c-1.8-1.8-4-2.7-6.8-2.7
				c-2.7,0-5,0.9-6.8,2.7C147.5,559.1,146.6,561.4,146.6,564z"/>
		</g>
		<g>
			<path class="st1" d="M180.8,577.1l-4.3,0l0.1-26l4.3,0l0,3.9c0.8-1.3,1.9-2.3,3.5-3.2c1.5-0.8,3.2-1.2,5.2-1.2
				c3.4,0,6.1,1,8.1,2.9c1.9,1.9,2.9,4.6,2.9,7.9l0,15.8l-4.3,0l0-14.7c0-5.1-2.6-7.7-7.3-7.7c-2.3,0-4.2,0.7-5.7,2.1
				c-1.5,1.4-2.3,3.3-2.3,5.6L180.8,577.1z"/>
		</g>
		<g>
			<path class="st1" d="M225.9,559.6l0,4.1l-17.7,0l0-4.1L225.9,559.6z"/>
		</g>
		<g>
			<path class="st1" d="M236,563.5l13.1,0l0-10.8l4.4,0l-0.1,10.7l5.6,0l0,3.9l-5.6,0l0,9.8l-4.4,0l0-9.8l-18.1,0l0-4.1l16.7-22.8
				l4.9,0L236,563.5z"/>
		</g>
		<g>
			<path class="st1" d="M316.2,555.1l-4.8,0l0-3.7l4.8,0l0-8.3l4.2,0l0,8.3l8.6,0l0,3.7l-8.5,0l0,14c0,3.3,1.7,4.9,4.5,4.9
				c1.6,0,3.1-0.3,4.4-1l0.6,3.7c-1.2,0.6-3.4,1.2-5.5,1.1c-5.1,0-8.3-2.9-8.3-8.1L316.2,555.1z"/>
		</g>
		<g>
			<path class="st1" d="M339.7,577.5l-4.3,0l0.1-26l4.3,0l0,3.8c1.4-2.9,4-4.4,7-4.4c1.4,0,2.7,0.2,3.7,0.7l-0.4,4
				c-1.2-0.4-2.3-0.7-3.4-0.7c-3.5,0-6.8,2.3-6.9,8.1L339.7,577.5z"/>
		</g>
		<g>
			<path class="st1" d="M366.4,551c3.2,0,6.4,1.2,8.7,3.2c2.3,2.1,3.8,5.3,3.8,9c0,1-0.1,1.8-0.1,2.4l-21.4-0.1
				c0.1,2.4,1,4.5,2.7,6.1c1.7,1.7,3.8,2.5,6.5,2.5c3.4,0,6.2-1.4,8.2-4.3l3.3,2.4c-1.2,1.8-2.8,3.3-4.8,4.3c-2,1-4.3,1.6-6.7,1.6
				c-7.7,0.1-13.7-6.1-13.5-13.6C353,556.9,359,551,366.4,551z M360.5,556.9c-1.7,1.3-2.7,3-3,5.1l17.1,0c-0.1-2.1-1-3.8-2.5-5.1
				c-1.5-1.3-3.4-2-5.7-2C364.2,554.9,362.2,555.6,360.5,556.9z"/>
		</g>
		<g>
			<path class="st1" d="M416.7,555.4l-4.8,0l0-3.7l4.8,0l0-8.3l4.2,0l0,8.3l8.6,0l0,3.7l-8.5,0l0,14c0,3.3,1.7,4.9,4.5,4.9
				c1.6,0,3.1-0.3,4.4-1l0.6,3.7c-1.2,0.6-3.4,1.2-5.5,1.1c-5.1,0-8.3-2.9-8.3-8.1L416.7,555.4z"/>
		</g>
		<g>
			<path class="st1" d="M435.9,577.7l0.1-26l4.3,0l0,3.9c1.5-2.6,4.7-4.4,8.5-4.4c4.5,0,7.9,2,9.5,5.5c1.8-3.4,5.3-5.4,9.5-5.4
				c3.3,0,6,1,7.9,2.9c1.9,2,2.9,4.5,2.9,7.7l0,15.9l-4.3,0l0-14.8c0-4.8-2.6-7.6-7.1-7.6c-2.2,0-4,0.7-5.5,2.1s-2.3,3.2-2.3,5.5
				l0,14.9l-4.3,0l0-14.8c0-4.8-2.6-7.6-7-7.6c-2.2,0-4.1,0.7-5.6,2.1c-1.5,1.4-2.3,3.3-2.3,5.6l0,14.7L435.9,577.7z"/>
		</g>
		<g>
			<path class="st1" d="M498.3,551.4c3.2,0,6.4,1.2,8.7,3.2c2.3,2.1,3.8,5.3,3.8,9c0,1-0.1,1.8-0.1,2.4l-21.4-0.1
				c0.1,2.4,1,4.5,2.7,6.1c1.7,1.7,3.8,2.5,6.5,2.5c3.4,0,6.2-1.4,8.2-4.3l3.3,2.4c-1.2,1.8-2.8,3.3-4.8,4.3c-2,1-4.3,1.6-6.7,1.6
				c-7.7,0.1-13.7-6.1-13.5-13.6C485,557.2,491,551.3,498.3,551.4z M492.5,557.2c-1.7,1.3-2.7,3-3,5.1l17.1,0
				c-0.1-2.1-1-3.8-2.5-5.1s-3.4-2-5.7-2C496.1,555.3,494.1,555.9,492.5,557.2z"/>
		</g>
		<g>
			<path class="st1" d="M521.9,577.9l-4.3,0l0.1-26l4.3,0l0,3.9c0.8-1.3,1.9-2.3,3.5-3.2c1.5-0.8,3.2-1.2,5.2-1.2
				c3.4,0,6.1,1,8.1,2.9c1.9,1.9,2.9,4.6,2.9,7.9l0,15.8l-4.3,0l0-14.7c0-5.1-2.6-7.7-7.3-7.7c-2.3,0-4.2,0.7-5.7,2.1
				c-1.5,1.4-2.3,3.3-2.3,5.6L521.9,577.9z"/>
		</g>
		<g>
			<path class="st1" d="M551.3,555.7l-4.8,0l0-3.7l4.8,0l0-8.3l4.2,0l0,8.3l8.6,0l0,3.7l-8.5,0l0,14c0,3.3,1.7,4.9,4.5,4.9
				c1.6,0,3.1-0.3,4.4-1l0.6,3.7c-1.2,0.6-3.4,1.2-5.5,1.1c-5.1,0-8.3-2.9-8.3-8.1L551.3,555.7z"/>
		</g>
		<g>
			<path class="st1" d="M585,574.7c-2.6-2.6-3.9-5.8-3.9-9.6s1.3-7,4-9.6c2.7-2.6,5.9-3.9,9.8-3.9c2.6,0,5,0.6,7.1,1.8
				c2.1,1.2,3.7,2.9,4.8,5.1l-3.4,2.1c-1.8-3.2-4.8-5-8.5-5.1c-2.6,0-4.9,0.9-6.7,2.7c-1.8,1.8-2.8,4.1-2.8,6.8c0,2.7,0.9,5,2.7,6.8
				c1.8,1.8,4,2.8,6.8,2.8c3.5,0,6.6-1.9,8.3-4.9l3.4,2.1c-1.1,2.1-2.6,3.7-4.8,4.9s-4.5,1.8-7,1.8
				C590.9,578.6,587.6,577.3,585,574.7z"/>
		</g>
		<g>
			<path class="st1" d="M624.6,578.7c-3.9,0-7.2-1.3-9.8-3.9c-2.6-2.6-3.9-5.8-3.9-9.6c0-3.8,1.3-7,4-9.6c2.6-2.6,5.9-3.9,9.9-3.9
				c3.9,0,7.2,1.3,9.8,3.9c2.6,2.6,3.9,5.8,3.9,9.6s-1.3,7-4,9.6C631.8,577.5,628.5,578.7,624.6,578.7z M615.2,565.2
				c0,2.7,0.9,5,2.7,6.8c1.8,1.8,4,2.8,6.8,2.8s5-0.9,6.8-2.7c1.8-1.8,2.7-4.1,2.7-6.8c0-2.7-0.9-5-2.7-6.8c-1.8-1.8-4-2.7-6.8-2.7
				c-2.7,0-5,0.9-6.8,2.7C616.1,560.2,615.2,562.5,615.2,565.2z"/>
		</g>
		<g>
			<path class="st1" d="M649.4,578.3l-4.3,0l0.1-26l4.3,0l0,3.9c0.8-1.3,1.9-2.3,3.5-3.2c1.5-0.8,3.2-1.2,5.2-1.2
				c3.4,0,6.1,1,8.1,2.9c1.9,1.9,2.9,4.6,2.9,7.9l0,15.8l-4.3,0l0-14.7c0-5.1-2.6-7.7-7.3-7.7c-2.3,0-4.2,0.7-5.7,2.1
				c-1.5,1.4-2.3,3.3-2.3,5.6L649.4,578.3z"/>
		</g>
		<g>
			<path class="st1" d="M679.4,575c-2.6-2.6-3.9-5.8-3.9-9.6c0-3.8,1.3-7,4-9.6c2.7-2.6,5.9-3.9,9.8-3.9c2.6,0,5,0.6,7.1,1.8
				c2.1,1.2,3.7,2.9,4.8,5.1l-3.4,2.1c-1.8-3.2-4.8-5-8.5-5.1c-2.6,0-4.9,0.9-6.7,2.7c-1.8,1.8-2.8,4.1-2.8,6.8c0,2.7,0.9,5,2.7,6.8
				c1.8,1.8,4,2.8,6.8,2.8c3.5,0,6.6-1.9,8.3-4.9l3.4,2.1c-1.1,2.1-2.6,3.7-4.8,4.9c-2.1,1.2-4.5,1.8-7,1.8
				C685.4,578.9,682.1,577.6,679.4,575z"/>
		</g>
		<g>
			<path class="st1" d="M718.7,551.9c3.2,0,6.4,1.2,8.7,3.2c2.3,2.1,3.8,5.3,3.8,9c0,1-0.1,1.8-0.1,2.4l-21.4-0.1
				c0.1,2.4,1,4.5,2.7,6.1c1.7,1.7,3.8,2.5,6.5,2.5c3.4,0,6.2-1.4,8.2-4.3l3.3,2.4c-1.2,1.8-2.8,3.3-4.8,4.3s-4.3,1.6-6.7,1.6
				c-7.7,0.1-13.7-6.1-13.5-13.6C705.3,557.8,711.3,551.9,718.7,551.9z M712.8,557.8c-1.7,1.3-2.7,3-3,5.1l17.1,0
				c-0.1-2.1-1-3.8-2.5-5.1c-1.5-1.3-3.4-2-5.7-2C716.4,555.8,714.5,556.5,712.8,557.8z"/>
		</g>
		<g>
			<path class="st1" d="M742.2,589.3l-4.3,0l0.1-36.8l4.3,0l0,4.2c2.1-2.9,5.6-4.8,10-4.8c7.3-0.1,13.2,6,13.1,13.6
				c0,3.9-1.3,7.1-3.8,9.6c-2.5,2.5-5.6,3.8-9.4,3.8c-4.5,0-7.9-1.9-10-4.8L742.2,589.3z M745,558.7c-1.8,1.9-2.8,4.2-2.8,6.9
				c0,2.7,0.9,5,2.7,6.8c1.8,1.8,4.1,2.8,6.9,2.8c2.7,0,4.9-0.9,6.7-2.7c1.7-1.8,2.6-4.1,2.6-6.8s-0.9-5-2.6-6.9
				c-1.8-1.9-3.9-2.8-6.6-2.8C749.1,555.9,746.8,556.8,745,558.7z"/>
		</g>
		<g>
			<path class="st1" d="M773.5,556.3l-4.8,0l0-3.7l4.8,0l0-8.3l4.2,0l0,8.3l8.6,0l0,3.7l-8.5,0l0,14c0,3.3,1.7,4.9,4.5,4.9
				c1.6,0,3.1-0.3,4.4-1l0.6,3.7c-1.2,0.6-3.4,1.2-5.5,1.1c-5.1,0-8.3-2.9-8.3-8.1L773.5,556.3z"/>
		</g>
		<g>
			<path class="st1" d="M62.7,645.9c-4.6-4.6-7.5-11.2-7.5-18.5c0-4.8,1.1-9.2,3.4-13.2c2.3-4,5.3-7.1,9.3-9.3
				c3.9-2.2,8.3-3.3,13.1-3.3c4.6,0,8.9,1.1,12.9,3.4c4,2.2,7.1,5.3,9.6,9.2l-7.9,5.6c-3.6-6-8.5-8.9-14.6-9
				c-4.6,0-8.3,1.5-11.2,4.6c-2.9,3.1-4.4,7.1-4.4,11.9c0,4.8,1.5,8.8,4.4,12c3,3.1,6.7,4.7,11.3,4.7c6,0,11.1-2.9,15.2-8.6l7.4,5.3
				c-2.4,4-5.6,7.1-9.6,9.3c-4,2.2-8.4,3.3-13,3.3C74,653.4,67.3,650.5,62.7,645.9z"/>
		</g>
		<g>
			<path class="st1" d="M108.3,634.9c0.1-5.4,1.8-9.8,5.3-13.3c3.5-3.4,7.8-5.2,13.1-5.1c5,0,9.1,1.6,12.3,4.7s4.8,7.3,4.8,12.6
				c0,1.3-0.1,2.6-0.3,4l-25.7-0.1c0.3,2,1.4,3.7,3.3,5.1c1.8,1.4,3.9,2,6.2,2.1c3.6,0,6.6-1.6,8.9-5l6.7,5.1
				c-1.6,2.7-3.9,4.8-6.7,6.3c-2.9,1.5-5.9,2.2-9.1,2.2C115.8,653.7,108,645.2,108.3,634.9z M134.9,631.5c-0.3-2-1.1-3.7-2.6-5
				c-1.5-1.3-3.4-2-5.6-2c-2.3,0-4.3,0.7-5.9,1.9c-1.6,1.3-2.6,3-2.9,5L134.9,631.5z"/>
		</g>
		<g>
			<path class="st1" d="M161.4,652.9l-9.5,0l0.1-35.5l9,0l0.2,4.1c2.1-2.8,6-4.8,11-4.8c4.1,0,7.5,1.3,10.1,3.8
				c2.6,2.6,3.9,5.9,3.9,10.2l-0.1,22.3l-9.5,0l0.1-19.9c0-4.8-3-7.6-7.3-7.6c-2.2,0-4.1,0.7-5.6,2c-1.5,1.4-2.3,3.2-2.3,5.6
				L161.4,652.9z"/>
		</g>
		<g>
			<path class="st1" d="M197.9,625.3l-6,0l0-7.9l6,0l0-11.4l9.2,0l0,11.4l10.7,0l0,7.9l-10.4,0l0,14.6c0,3.6,1.9,5.3,5.2,5.3
				c2,0,4-0.4,6-1.2l0.9,7.9c-2.2,1.1-5.7,1.8-8.6,1.8c-8,0-13.1-4.3-13-12.4L197.9,625.3z"/>
		</g>
		<g>
			<path class="st1" d="M222.5,635.2c0.1-5.4,1.8-9.8,5.3-13.3c3.5-3.4,7.8-5.2,13.1-5.1c5,0,9.1,1.6,12.3,4.7
				c3.2,3.2,4.8,7.3,4.8,12.6c0,1.3-0.1,2.6-0.3,4l-25.7-0.1c0.3,2,1.4,3.7,3.3,5.1c1.8,1.4,3.9,2,6.2,2.1c3.6,0,6.6-1.6,8.9-5
				l6.7,5.1c-1.6,2.7-3.9,4.8-6.7,6.3c-2.9,1.5-5.9,2.2-9.1,2.2C230,654,222.2,645.5,222.5,635.2z M249.1,631.8
				c-0.3-2-1.1-3.7-2.6-5c-1.5-1.3-3.4-2-5.6-2c-2.3,0-4.3,0.7-5.9,1.9c-1.6,1.3-2.6,3-2.9,5L249.1,631.8z"/>
		</g>
		<g>
			<path class="st1" d="M266.2,653.1l0.1-35.5l9.2,0l0.2,4.8c1.8-3.7,5.2-5.6,9.3-5.6c1.5,0,3.1,0.3,4.6,0.8l-0.8,8.5
				c-1.6-0.6-3-0.8-4.4-0.8c-4.2,0-8.6,2.2-8.6,9.6l0,18.2L266.2,653.1z"/>
		</g>
		<g>
			<path class="st1" d="M315.5,648.7c-3.6-3.5-5.4-7.9-5.4-13.2c0-5.3,1.8-9.7,5.5-13.2c3.6-3.5,8.1-5.3,13.6-5.3
				c5.4,0,10,1.8,13.6,5.3c3.6,3.6,5.4,8,5.4,13.2c0.2,10.3-8.3,18.7-19,18.5C323.6,654,319.1,652.2,315.5,648.7z M322.2,642.6
				c1.8,1.9,4.1,2.8,6.8,2.8c2.8,0,5.1-0.9,6.9-2.8c1.8-1.9,2.7-4.2,2.7-7.1c0-2.8-0.9-5.2-2.6-7.1c-1.8-1.9-4.1-2.8-6.9-2.8
				c-2.8,0-5,0.9-6.9,2.8c-1.8,1.9-2.7,4.2-2.7,7.1C319.5,638.4,320.4,640.7,322.2,642.6z"/>
		</g>
		<g>
			<path class="st1" d="M357.8,625.7l-6.3,0l0-7.9l6.3,0l0-3.5c0-4.1,1.3-7.4,3.8-10c2.5-2.5,6.2-3.8,10.9-3.8c2,0,4.3,0.4,6.7,1.3
				l-1,7.8c-1.4-0.6-2.9-0.9-4.7-0.9c-4,0-6.5,1.9-6.5,6.2l0,2.9l10.1,0l0,7.9l-9.9,0l-0.1,27.6l-9.5,0L357.8,625.7z"/>
		</g>
		<g>
			<path class="st1" d="M400.9,653.5l0.1-50.3l35.8,0.1l0,8.7l-25.8-0.1l0,11.6l22.4,0.1l0,8.7l-22.4-0.1l0,12.7l26.3,0.1l0,8.6
				L400.9,653.5z"/>
		</g>
		<g>
			<path class="st1" d="M440.8,653.6l13.1-18.1L441,618.1l10.9,0l7.7,11l7.7-10.9l10.9,0l-12.9,17.4l13.1,18.2l-10.7,0l-8.1-11.8
				l-8.1,11.8L440.8,653.6z"/>
		</g>
		<g>
			<path class="st1" d="M480.3,635.8c0-5.2,1.9-9.6,5.5-13.2s8.2-5.3,13.4-5.3c3.4,0,6.7,0.9,9.7,2.7c3,1.8,5.2,4.3,6.8,7.5
				l-7.2,4.6c-2-4-5.5-6-9.1-6c-2.8,0-5.1,0.9-6.9,2.8c-1.8,1.9-2.7,4.3-2.8,7.1c0,2.8,0.9,5.1,2.7,7s4.1,2.9,6.8,2.9
				c4,0,7.2-2,9.5-6.1l6.8,4.8c-1.6,3.1-3.9,5.6-6.9,7.3c-3,1.7-6.2,2.6-9.7,2.6C488.6,654.7,480.1,646,480.3,635.8z"/>
		</g>
		<g>
			<path class="st1" d="M520.4,636c0.1-5.4,1.8-9.8,5.3-13.3c3.5-3.4,7.8-5.2,13.1-5.1c5,0,9.1,1.6,12.3,4.7
				c3.2,3.2,4.8,7.3,4.8,12.6c0,1.3-0.1,2.6-0.3,4l-25.7-0.1c0.3,2,1.4,3.7,3.3,5.1c1.8,1.4,3.9,2,6.2,2.1c3.6,0,6.6-1.6,8.9-5
				l6.7,5.1c-1.6,2.7-3.9,4.8-6.7,6.3c-2.9,1.5-5.9,2.2-9.1,2.2C527.9,654.7,520.1,646.2,520.4,636z M547,632.6
				c-0.3-2-1.1-3.7-2.6-5c-1.5-1.3-3.4-2-5.6-2c-2.3,0-4.3,0.7-5.9,1.9c-1.6,1.3-2.6,3-2.9,5L547,632.6z"/>
		</g>
		<g>
			<path class="st1" d="M573.6,601.8l-0.1,52.1l-9.5,0l0.1-52.1L573.6,601.8z"/>
		</g>
		<g>
			<path class="st1" d="M593.9,601.9l-0.1,52.1l-9.5,0l0.1-52.1L593.9,601.9z"/>
		</g>
		<g>
			<path class="st1" d="M602,636.2c0.1-5.4,1.8-9.8,5.3-13.3c3.5-3.4,7.8-5.2,13.1-5.1c5,0,9.1,1.6,12.3,4.7
				c3.2,3.2,4.8,7.3,4.8,12.6c0,1.3-0.1,2.6-0.3,4l-25.7-0.1c0.3,2,1.4,3.7,3.3,5.1c1.8,1.4,3.9,2,6.2,2.1c3.6,0,6.6-1.6,8.9-5
				l6.7,5.1c-1.6,2.7-3.9,4.8-6.7,6.3c-2.9,1.5-5.9,2.2-9.1,2.2C609.5,654.9,601.7,646.4,602,636.2z M628.6,632.8
				c-0.3-2-1.1-3.7-2.6-5c-1.5-1.3-3.4-2-5.6-2c-2.3,0-4.3,0.7-5.9,1.9c-1.6,1.3-2.6,3-2.9,5L628.6,632.8z"/>
		</g>
		<g>
			<path class="st1" d="M655.1,654.1l-9.5,0l0.1-35.5l9,0l0.2,4.1c2.1-2.8,6-4.8,11-4.8c4.1,0,7.5,1.3,10.1,3.8
				c2.6,2.6,3.9,5.9,3.9,10.2l-0.1,22.3l-9.5,0l0.1-19.9c0-4.8-3-7.6-7.3-7.6c-2.2,0-4.1,0.7-5.6,2c-1.5,1.4-2.3,3.2-2.3,5.6
				L655.1,654.1z"/>
		</g>
		<g>
			<path class="st1" d="M687.5,636.4c0-5.2,1.9-9.6,5.5-13.2c3.7-3.6,8.2-5.3,13.4-5.3c3.4,0,6.7,0.9,9.7,2.7c3,1.8,5.2,4.3,6.8,7.5
				l-7.2,4.6c-2-4-5.5-6-9.1-6c-2.8,0-5.1,0.9-6.9,2.8c-1.8,1.9-2.7,4.3-2.8,7.1c0,2.8,0.9,5.1,2.7,7c1.8,1.9,4.1,2.9,6.8,2.9
				c4,0,7.2-2,9.5-6.1l6.8,4.8c-1.6,3.1-3.9,5.6-6.9,7.3c-3,1.7-6.2,2.6-9.7,2.6C695.8,655.2,687.3,646.6,687.5,636.4z"/>
		</g>
		<g>
			<path class="st1" d="M727.5,636.5c0.1-5.4,1.8-9.8,5.3-13.3c3.5-3.4,7.8-5.2,13.1-5.1c5,0,9.1,1.6,12.3,4.7
				c3.2,3.2,4.8,7.3,4.8,12.6c0,1.3-0.1,2.6-0.3,4l-25.7-0.1c0.3,2,1.4,3.7,3.3,5.1c1.8,1.4,3.9,2,6.2,2.1c3.6,0,6.6-1.6,8.9-5
				l6.7,5.1c-1.6,2.7-3.9,4.8-6.7,6.3c-2.9,1.5-5.9,2.2-9.1,2.2C735.1,655.3,727.3,646.8,727.5,636.5z M754.2,633.1
				c-0.3-2-1.1-3.7-2.6-5c-1.5-1.3-3.4-2-5.6-2c-2.3,0-4.3,0.7-5.9,1.9c-1.6,1.3-2.6,3-2.9,5L754.2,633.1z"/>
		</g>
	</g>
	<path class="st1" d="M275.2,541.2c-1.4-1.4-3.3-2.2-5.3-2.2c-2,0-3.9,0.8-5.3,2.2c-1.4,1.4-2.2,3.3-2.2,5.3s0.8,3.9,2.2,5.3
		c1.4,1.4,3.3,2.2,5.3,2.2c2,0,3.9-0.8,5.3-2.2c1.4-1.4,2.2-3.3,2.2-5.3S276.6,542.6,275.2,541.2z M270,552.6
		c-3.4,0-6.2-2.8-6.2-6.2s2.8-6.2,6.2-6.2c3.4,0,6.2,2.8,6.2,6.2S273.4,552.6,270,552.6z"/>
	<path class="st1" d="M271.7,546.6c1-0.4,1.4-1.1,1.4-2c0-0.7-0.3-1.3-0.9-1.7c-0.6-0.4-1.5-0.6-2.5-0.6c-0.7,0-1.5,0.1-2.4,0.2v8.1
		h1.2V547h1.5c1.2,0,2,1.2,2.3,3.6h1.2c-0.2-1.2-0.4-2.1-0.7-2.7C272.5,547.3,272.1,546.9,271.7,546.6z M269.9,546.1h-1.4v-2.8
		c0.3,0,0.7-0.1,1.2-0.1c1.5,0,2.3,0.5,2.3,1.4C272,545.6,271.3,546.1,269.9,546.1z"/>
	<path class="st1" d="M404.7,551.4v3.7c-1.1-1.3-2.3-2.2-3.7-2.9c-1.7-0.9-3.7-1.4-5.8-1.4c-3.7,0-6.9,1.3-9.5,4
		c-2.6,2.6-4,5.9-4,9.6c0,3.8,1.3,7.1,3.9,9.7c2.6,2.7,5.8,4,9.5,4c2.1,0,4-0.4,5.7-1.3c1.4-0.7,2.7-1.6,3.8-2.8v3.5h4.2v-26H404.7z
		 M404.9,564.6c0,1.8-0.4,3.4-1.2,4.9c-0.8,1.4-2,2.6-3.5,3.4c-3,1.7-6.5,1.7-9.4,0c-1.4-0.8-2.6-2-3.5-3.6
		c-0.9-1.5-1.3-3.1-1.3-4.8c0-1.7,0.4-3.3,1.3-4.8c0.9-1.5,2-2.7,3.4-3.5c1.4-0.8,3-1.3,4.7-1.3c2.6,0,4.9,0.9,6.7,2.8
		C404,559.5,404.9,561.8,404.9,564.6z"/>
</g>
<g>
</g>
<g>
</g>
<g>
</g>
<g>
</g>
<g>
</g>
<g>
</g>
</svg>
