<svg xmlns="http://www.w3.org/2000/svg" viewBox="0 0 202.73 32.58"><defs><style>.cls-1{fill:#c00}</style></defs><g id="Layer_2" data-name="Layer 2"><g id="Nobel_Biocare_Horizontal_14mm-6mm" data-name="Nobel Biocare™ Horizontal 14mm-6mm"><path d="M197.92 21.71V19.1H197v-.43h2.25v.43h-.88v2.61zm4.32 0v-2.25l-1 1.34-1-1.34v2.25h-.49v-3h.49l1 1.38 1-1.38h.49v3z" id="TM"/><path d="M55.99 26.57h-.05L47.7 13.88h-3.6v18.3h3.09V18.73h.05l8.75 13.45h3.09v-18.3h-3.09v12.69zm11.63-8.15c-3.66 0-6.33 2.68-6.33 7.09s2.62 7 6.28 7 6.33-2.68 6.33-7.08-2.62-7.01-6.28-7.01zm0 11.44c-1.9 0-3.21-1.59-3.21-4.38s1.31-4.38 3.21-4.38 3.22 1.6 3.22 4.38-1.34 4.38-3.25 4.38zM83 18.42A5.37 5.37 0 0 0 79.15 20v-6.12h-3.09v18.3h2.73l.13-1.49a4.87 4.87 0 0 0 3.88 1.85c3.5 0 5.82-2.88 5.82-7.21s-2.19-6.91-5.62-6.91zm-.85 11.44a3.88 3.88 0 0 1-3-1.54V22.6a3.91 3.91 0 0 1 3-1.5c2.12 0 3.35 1.6 3.35 4.33s-1.26 4.43-3.34 4.43zm14.47-11.44c-3.73 0-6.23 2.86-6.23 7.14s2.5 7 6.49 7a8 8 0 0 0 5.2-1.88l-1.37-2.19A5.83 5.83 0 0 1 97 30c-2 0-3.14-1.16-3.45-3.38h9v-1.21c-.01-4.28-2.32-6.99-5.93-6.99zm-3.09 6.06c.08-2.17 1.29-3.64 3-3.64s2.86 1.42 2.93 3.64zM109 29.76c-.7 0-1.06-.36-1.06-1.11V13.88h-3.08v15.44a2.74 2.74 0 0 0 3 3.07 8.43 8.43 0 0 0 2.44-.41l-.26-2.37a4.41 4.41 0 0 1-1.04.15zm17.62-7.16v-.06a4.06 4.06 0 0 0 2.65-4c0-2.83-2.11-4.64-5.41-4.64h-6.64v18.3H124c3.66 0 6-2 6-5.1a4.38 4.38 0 0 0-3.38-4.5zM119 15.48h4.77c2.31 0 3.78 1.27 3.78 3.28s-1.42 3.17-3.66 3.17H119zm5 15.11h-5v-7.12h5c2.68 0 4.25 1.29 4.25 3.51s-1.61 3.61-4.25 3.61zm9.68-16.49a1.16 1.16 0 1 0 1.16 1.16 1.12 1.12 0 0 0-1.16-1.16zm-.85 4.67h1.7v13.4h-1.7zm10.32-.35c-3.58 0-6 2.84-6 7.09s2.37 7 5.92 7 6-2.83 6-7.08-2.37-7.01-5.92-7.01zm0 12.58c-2.57 0-4.24-2.14-4.24-5.52s1.64-5.48 4.21-5.48 4.25 2.14 4.25 5.51S145.7 31 143.12 31zm13.41.05c-2.45 0-4.07-2.22-4.07-5.54s1.67-5.59 4.2-5.59a3.79 3.79 0 0 1 3.57 2.75l1.5-.69a5.36 5.36 0 0 0-5-3.56c-3.53 0-5.92 2.86-5.92 7.11s2.32 7 5.77 7c2.26 0 4.09-1.28 5.25-3.71l-1.47-.74c-.98 1.97-2.24 2.97-3.83 2.97zm17.63-2.4v-5.82c0-3-1.52-4.41-4.66-4.41a11.69 11.69 0 0 0-5.62 1.58l.6 1.42a9.36 9.36 0 0 1 4.81-1.49c2.16 0 3.17.95 3.17 3v1c-6.82.39-9 1.47-9 4.43 0 2.55 1.8 4.2 4.58 4.2a6.54 6.54 0 0 0 4.5-1.9 2.58 2.58 0 0 0 1.47 1.9l1.08-.95c-.75-.61-.93-1.2-.93-2.96zm-1.7.54a5.43 5.43 0 0 1-4.05 1.91c-2 0-3.26-1-3.26-2.76 0-2.11 1.59-2.81 7.31-3.19zm6.81-8.29v-2.12h-1.69v13.4h1.69v-9.69a5.16 5.16 0 0 1 4.2-2.42 6.69 6.69 0 0 1 1.26.13v-1.68a9 9 0 0 0-1.21-.1 5 5 0 0 0-4.25 2.48zm11.7-2.45c-3.5 0-5.87 2.89-5.87 7.14s2.37 7 6.12 7a7 7 0 0 0 4.89-2l-.82-1.24a5.73 5.73 0 0 1-4 1.7c-2.59 0-4.24-1.77-4.47-4.87h9.78v-.77c-.04-4.22-2.23-6.96-5.63-6.96zm-4.15 6.42C187 21.93 188.61 20 191 20s3.84 1.91 3.94 4.92z" id="Nobel_Biocare" data-name="Nobel Biocare"/><g id="N"><path class="cls-1" d="M28.16 4.63v23.09a.61.61 0 0 1-.61.61h-4.38c-1.42 0-1.9-.19-2.36-.83L10 12.54A.61.61 0 0 0 9 13v4.18a.78.78 0 0 0 .22.54l9.09 13a3.76 3.76 0 0 0 3.35 1.51h9.91a.61.61 0 0 0 .61-.61V.61a.61.61 0 0 0-.61-.61h-8.5a.61.61 0 0 0-.61.61v2.8a.61.61 0 0 0 .61.61h4.48a.61.61 0 0 1 .61.61z"/><path class="cls-1" d="M4 27.55V4.47a.61.61 0 0 1 .61-.61H9c1.42 0 1.89.18 2.35.83l10.77 15a.62.62 0 0 0 1.05-.43V15a.78.78 0 0 0-.17-.5l-9.1-13A3.76 3.76 0 0 0 10.52 0H.61A.61.61 0 0 0 0 .61v31a.61.61 0 0 0 .61.61h8.5a.61.61 0 0 0 .61-.61v-2.8a.61.61 0 0 0-.61-.61H4.63a.61.61 0 0 1-.63-.65z"/></g></g></g></svg>