<svg xmlns="http://www.w3.org/2000/svg" viewBox="0 0 100.2 32.45"><defs><style>.cls-1{fill:#c00}</style></defs><g id="Layer_2" data-name="Layer 2"><g id="Nobel_Biocare_Horizontal_14mm-6mm" data-name="Nobel Biocare™ Horizontal 14mm-6mm"><path d="M95.4 26.36v-2.61h-.89v-.43h2.26v.43h-.88v2.61zm4.32 0v-2.25l-1 1.34-1-1.34v2.25h-.52v-3h.49l1 1.38 1-1.38h.48v3z" id="TM"/><path d="M48.22 25.89A2.69 2.69 0 0 0 50 23.21c0-1.86-1.39-3.05-3.56-3.05H42v12h4.48c2.41 0 3.95-1.3 3.95-3.35a2.89 2.89 0 0 0-2.21-2.92zm-5-4.68h3.13c1.52 0 2.49.83 2.49 2.16s-.93 2.08-2.41 2.08h-3.24zm3.33 9.93h-3.36v-4.67h3.33c1.76 0 2.8.84 2.8 2.3s-1.09 2.37-2.8 2.37zm6.31-10.83a.76.76 0 1 0 .76.76.74.74 0 0 0-.76-.76zm-.56 3.06h1.12v8.81H52.3zm6.78-.22c-2.35 0-3.92 1.86-3.92 4.66s1.56 4.62 3.89 4.62S63 30.57 63 27.77s-1.58-4.62-3.92-4.62zm0 8.27c-1.69 0-2.79-1.41-2.79-3.63s1.1-3.63 2.79-3.63 2.79 1.41 2.79 3.63-1.11 3.63-2.8 3.63zm8.82.03c-1.61 0-2.67-1.46-2.67-3.64s1.09-3.68 2.75-3.68a2.51 2.51 0 0 1 2.36 1.81l1-.46A3.52 3.52 0 0 0 68 23.15c-2.32 0-3.89 1.88-3.89 4.67s1.52 4.61 3.79 4.61A3.77 3.77 0 0 0 71.35 30l-1-.49a2.81 2.81 0 0 1-2.45 1.94zm11.59-1.58V26c0-1.94-1-2.89-3.06-2.89a7.54 7.54 0 0 0-3.69 1l.39.93a6.11 6.11 0 0 1 3.16-1c1.42 0 2.08.63 2.08 2v.67c-4.48.25-5.92 1-5.92 2.91a2.71 2.71 0 0 0 3 2.76 4.28 4.28 0 0 0 3-1.25 1.68 1.68 0 0 0 1 1.25l.71-.63c-.55-.32-.67-.75-.67-1.88zm-1.12.36a3.57 3.57 0 0 1-2.66 1.25c-1.33 0-2.14-.68-2.14-1.81 0-1.39 1-1.85 4.8-2.1zm4.48-5.46v-1.39h-1.11v8.81h1.11v-6.37a3.39 3.39 0 0 1 2.76-1.59 4.13 4.13 0 0 1 .83.09v-1.11a6.35 6.35 0 0 0-.79-.06 3.32 3.32 0 0 0-2.8 1.62zm7.68-1.6c-2.3 0-3.86 1.9-3.86 4.69s1.56 4.59 4 4.59a4.62 4.62 0 0 0 3.21-1.28l-.54-.82a3.74 3.74 0 0 1-2.64 1.12c-1.71 0-2.79-1.17-2.94-3.2h6.43v-.51c.03-2.76-1.41-4.59-3.66-4.59zm-2.73 4.22c.09-1.93 1.17-3.24 2.71-3.24S93 25.4 93.1 27.39zM49.86 13.8h-.04l-5.41-8.34h-2.37V17.5h2.03V8.65h.03l5.76 8.85h2.03V5.46h-2.03v8.34zm11.77-.73c0-2.86-1.73-4.62-4.13-4.62s-4.16 1.76-4.16 4.66 1.72 4.62 4.13 4.62 4.16-1.73 4.16-4.66zm-6.26 0c0-1.83.86-2.88 2.11-2.88s2.12 1 2.12 2.88S58.74 16 57.48 16s-2.11-1.08-2.11-2.91zm9.56 3.44a3.21 3.21 0 0 0 2.55 1.22c2.3 0 3.83-1.9 3.83-4.74s-1.44-4.54-3.69-4.54a3.51 3.51 0 0 0-2.54 1.05v-4h-2v12h1.79zm.15-5.32a2.59 2.59 0 0 1 2-1c1.38 0 2.2 1 2.2 2.85S68.43 16 67.06 16a2.54 2.54 0 0 1-2-1zm11.49-2.74c-2.46 0-4.1 1.88-4.1 4.69s1.64 4.59 4.27 4.59a5.28 5.28 0 0 0 3.42-1.23l-.9-1.44a3.87 3.87 0 0 1-2.45 1c-1.29 0-2.07-.76-2.27-2.22h5.92V13c0-2.77-1.52-4.55-3.89-4.55zm-2 4c0-1.42.84-2.39 2-2.39s1.88.93 1.93 2.39zM84 17.63a5.6 5.6 0 0 0 1.61-.27l-.17-1.56a2.73 2.73 0 0 1-.69.1c-.46 0-.7-.23-.7-.73v-9.7H82v10.14a1.8 1.8 0 0 0 2 2.02z" id="Nobel_Biocare" data-name="Nobel Biocare"/><g id="N"><path class="cls-1" d="M28.17 4.64v23.09a.61.61 0 0 1-.61.61h-4.38c-1.42 0-1.9-.19-2.36-.83L10 12.54A.61.61 0 0 0 9 13v4.19a.74.74 0 0 0 .22.53l9.1 13a3.76 3.76 0 0 0 3.35 1.51h9.91a.61.61 0 0 0 .61-.61V.61a.61.61 0 0 0-.61-.61h-8.5a.61.61 0 0 0-.61.61v2.8a.61.61 0 0 0 .61.61h4.48a.61.61 0 0 1 .61.62z"/><path class="cls-1" d="M4 27.56V4.47a.61.61 0 0 1 .62-.61H9c1.42 0 1.89.18 2.35.83l10.78 15a.61.61 0 0 0 1.05-.43V15c0-.21-.06-.29-.22-.53l-9.1-13A3.77 3.77 0 0 0 10.53 0H.61A.61.61 0 0 0 0 .61v31a.61.61 0 0 0 .61.61h8.5a.61.61 0 0 0 .62-.61v-2.8a.61.61 0 0 0-.62-.61H4.64a.61.61 0 0 1-.64-.64z"/></g></g></g></svg>